<?xml version="1.0" encoding="utf-8" standalone="no"?>
<!DOCTYPE svg PUBLIC "-//W3C//DTD SVG 1.1//EN"
  "http://www.w3.org/Graphics/SVG/1.1/DTD/svg11.dtd">
<svg xmlns:xlink="http://www.w3.org/1999/xlink" width="514.000544pt" height="175.196263pt" viewBox="0 0 514.000544 175.196263" xmlns="http://www.w3.org/2000/svg" version="1.1">
 <metadata>
  <rdf:RDF xmlns:dc="http://purl.org/dc/elements/1.1/" xmlns:cc="http://creativecommons.org/ns#" xmlns:rdf="http://www.w3.org/1999/02/22-rdf-syntax-ns#">
   <cc:Work>
    <dc:type rdf:resource="http://purl.org/dc/dcmitype/StillImage"/>
    <dc:date>2026-07-04T23:14:05.816514</dc:date>
    <dc:format>image/svg+xml</dc:format>
    <dc:creator>
     <cc:Agent>
      <dc:title>Matplotlib v3.11.0, https://matplotlib.org/</dc:title>
     </cc:Agent>
    </dc:creator>
   </cc:Work>
  </rdf:RDF>
 </metadata>
 <defs>
  <style type="text/css">*{stroke-linejoin: round; stroke-linecap: butt}</style>
 </defs>
 <g id="figure_1">
  <g id="patch_1">
   <path d="M 0 175.196263 
L 514.000544 175.196263 
L 514.000544 0 
L 0 0 
z
" style="fill: #ffffff"/>
  </g>
  <g id="axes_1">
   <g id="patch_2">
    <path d="M 38.587773 143.857454 
L 158.40349 143.857454 
L 158.40349 20.126297 
L 38.587773 20.126297 
z
" style="fill: #ffffff"/>
   </g>
   <g id="matplotlib.axis_1">
    <g id="xtick_1">
     <g id="line2d_1">
      <defs>
       <path id="mc4ef6bea98" d="M 0 0 
L 0 3.5 
" style="stroke: #000000; stroke-width: 0.8"/>
      </defs>
      <g>
       <use xlink:href="#mc4ef6bea98" x="44.033942" y="143.857454" style="stroke: #000000; stroke-width: 0.8"/>
      </g>
     </g>
     <g id="text_1">
      <text style="font-size: 7px; font-family: 'Arial', 'Helvetica', 'DejaVu Sans', sans-serif; text-anchor: middle" x="44.033942" y="155.953646" transform="rotate(-0 44.033942 155.953646)">0</text>
     </g>
    </g>
    <g id="xtick_2">
     <g id="line2d_2">
      <g>
       <use xlink:href="#mc4ef6bea98" x="86.602923" y="143.857454" style="stroke: #000000; stroke-width: 0.8"/>
      </g>
     </g>
     <g id="text_2">
      <text style="font-size: 7px; font-family: 'Arial', 'Helvetica', 'DejaVu Sans', sans-serif; text-anchor: middle" x="86.602923" y="155.953646" transform="rotate(-0 86.602923 155.953646)">100</text>
     </g>
    </g>
    <g id="xtick_3">
     <g id="line2d_3">
      <g>
       <use xlink:href="#mc4ef6bea98" x="129.171903" y="143.857454" style="stroke: #000000; stroke-width: 0.8"/>
      </g>
     </g>
     <g id="text_3">
      <text style="font-size: 7px; font-family: 'Arial', 'Helvetica', 'DejaVu Sans', sans-serif; text-anchor: middle" x="129.171903" y="155.953646" transform="rotate(-0 129.171903 155.953646)">200</text>
     </g>
    </g>
    <g id="text_4">
     <text style="font-size: 7px; font-family: 'Arial', 'Helvetica', 'DejaVu Sans', sans-serif; text-anchor: middle" x="98.495631" y="166.522982" transform="rotate(-0 98.495631 166.522982)">Time [ms]</text>
    </g>
   </g>
   <g id="matplotlib.axis_2">
    <g id="ytick_1">
     <g id="line2d_4">
      <defs>
       <path id="m649e26307f" d="M 0 0 
L -3.5 0 
" style="stroke: #000000; stroke-width: 0.8"/>
      </defs>
      <g>
       <use xlink:href="#m649e26307f" x="38.587773" y="138.233311" style="stroke: #000000; stroke-width: 0.8"/>
      </g>
     </g>
     <g id="text_5">
      <text style="font-size: 7px; font-family: 'Arial', 'Helvetica', 'DejaVu Sans', sans-serif; text-anchor: end" x="31.587773" y="140.781407" transform="rotate(-0 31.587773 140.781407)">−1.0</text>
     </g>
    </g>
    <g id="ytick_2">
     <g id="line2d_5">
      <g>
       <use xlink:href="#m649e26307f" x="38.587773" y="107.901641" style="stroke: #000000; stroke-width: 0.8"/>
      </g>
     </g>
     <g id="text_6">
      <text style="font-size: 7px; font-family: 'Arial', 'Helvetica', 'DejaVu Sans', sans-serif; text-anchor: end" x="31.587773" y="110.449737" transform="rotate(-0 31.587773 110.449737)">−0.5</text>
     </g>
    </g>
    <g id="ytick_3">
     <g id="line2d_6">
      <g>
       <use xlink:href="#m649e26307f" x="38.587773" y="77.569971" style="stroke: #000000; stroke-width: 0.8"/>
      </g>
     </g>
     <g id="text_7">
      <text style="font-size: 7px; font-family: 'Arial', 'Helvetica', 'DejaVu Sans', sans-serif; text-anchor: end" x="31.587773" y="80.118067" transform="rotate(-0 31.587773 80.118067)">0.0</text>
     </g>
    </g>
    <g id="ytick_4">
     <g id="line2d_7">
      <g>
       <use xlink:href="#m649e26307f" x="38.587773" y="47.238301" style="stroke: #000000; stroke-width: 0.8"/>
      </g>
     </g>
     <g id="text_8">
      <text style="font-size: 7px; font-family: 'Arial', 'Helvetica', 'DejaVu Sans', sans-serif; text-anchor: end" x="31.587773" y="49.786397" transform="rotate(-0 31.587773 49.786397)">0.5</text>
     </g>
    </g>
    <g id="text_9">
     <text style="font-size: 7px; font-family: 'Arial', 'Helvetica', 'DejaVu Sans', sans-serif; text-anchor: middle" x="12.296191" y="81.991876" transform="rotate(-90 12.296191 81.991876)">Normalized amplitude</text>
    </g>
   </g>
   <g id="line2d_8">
    <path d="M 44.033942 61.323393 
L 44.087154 92.931257 
L 44.193576 92.723721 
L 44.246787 81.711335 
L 44.299998 83.113465 
L 44.35321 89.444758 
L 44.406421 68.573794 
L 44.459632 83.800189 
L 44.566055 68.941122 
L 44.619266 83.760539 
L 44.672477 44.625811 
L 44.725688 96.962922 
L 44.832111 94.924452 
L 44.885322 58.730721 
L 44.938533 66.196025 
L 45.044956 96.236079 
L 45.151378 56.155414 
L 45.204589 93.777597 
L 45.257801 48.45505 
L 45.311012 83.682723 
L 45.364223 78.623414 
L 45.417434 79.957414 
L 45.470645 93.864917 
L 45.523857 42.097094 
L 45.577068 66.242993 
L 45.68349 95.724322 
L 45.736702 74.529435 
L 45.789913 87.328803 
L 45.843124 82.561341 
L 45.896335 51.264991 
L 45.949546 89.876341 
L 46.002758 62.825606 
L 46.215603 94.924105 
L 46.322025 67.776758 
L 46.375236 71.868153 
L 46.428447 59.139388 
L 46.481659 90.00326 
L 46.53487 74.273907 
L 46.588081 84.549978 
L 46.641292 76.459899 
L 46.800926 87.873807 
L 46.854137 89.798556 
L 46.907349 61.761375 
L 46.96056 67.509964 
L 47.013771 76.75019 
L 47.066982 73.169488 
L 47.120193 71.40446 
L 47.173405 77.167266 
L 47.279827 65.556016 
L 47.38625 96.378718 
L 47.439461 90.769474 
L 47.599094 52.647405 
L 47.652306 102.82213 
L 47.705517 58.779772 
L 47.811939 93.464533 
L 47.971573 55.408096 
L 48.184418 111.300855 
L 48.29084 70.921943 
L 48.344052 75.697676 
L 48.397263 78.452495 
L 48.503685 110.530286 
L 48.610108 64.8458 
L 48.663319 69.614014 
L 48.769741 85.820416 
L 48.822953 53.856031 
L 48.876164 100.728405 
L 48.929375 75.450842 
L 48.982586 58.111887 
L 49.089009 102.047949 
L 49.14222 75.191134 
L 49.195431 83.714693 
L 49.248642 83.916935 
L 49.301854 108.328125 
L 49.461487 68.673513 
L 49.621121 100.451287 
L 49.674332 67.308823 
L 49.727543 75.598771 
L 49.780755 109.783207 
L 49.833966 83.189486 
L 49.887177 86.16441 
L 49.940388 41.772939 
L 49.9936 69.017167 
L 50.046811 95.763403 
L 50.100022 84.620452 
L 50.153233 91.29222 
L 50.312867 73.911298 
L 50.366078 72.89108 
L 50.419289 81.078834 
L 50.472501 107.470336 
L 50.525712 58.98969 
L 50.578923 106.17741 
L 50.632134 69.075316 
L 50.685346 92.055261 
L 50.738557 91.303595 
L 50.844979 70.966068 
L 51.004613 107.301515 
L 51.164247 48.987542 
L 51.32388 91.704162 
L 51.377091 81.154666 
L 51.430303 88.826178 
L 51.483514 100.302401 
L 51.643148 70.22594 
L 51.696359 76.689466 
L 51.74957 63.599593 
L 51.802781 72.126281 
L 51.855992 80.253256 
L 51.909204 54.251346 
L 51.962415 87.726944 
L 52.015626 74.882709 
L 52.068837 50.608155 
L 52.122049 71.922893 
L 52.17526 94.887688 
L 52.228471 70.776268 
L 52.281682 68.7313 
L 52.334894 71.157518 
L 52.388105 92.544236 
L 52.494527 65.879892 
L 52.547738 93.399078 
L 52.60095 81.494493 
L 52.654161 86.871777 
L 52.760583 59.517232 
L 52.867006 81.804474 
L 52.920217 57.418795 
L 53.079851 110.978446 
L 53.186273 63.262951 
L 53.239484 74.57884 
L 53.292696 46.83605 
L 53.345907 73.757861 
L 53.452329 86.073151 
L 53.558752 68.453372 
L 53.611963 73.793089 
L 53.665174 76.871816 
L 53.771597 94.795588 
L 53.878019 62.193675 
L 54.037653 90.671103 
L 54.090864 66.431501 
L 54.144075 98.273578 
L 54.197286 78.59467 
L 54.250498 73.64001 
L 54.303709 55.709378 
L 54.463343 86.348657 
L 54.622976 65.016015 
L 54.676187 68.103833 
L 54.78261 90.619756 
L 54.942244 71.117997 
L 54.995455 77.099037 
L 55.048666 48.216403 
L 55.101877 75.793291 
L 55.155088 70.540471 
L 55.261511 95.574516 
L 55.314722 95.350431 
L 55.421145 54.07337 
L 55.474356 65.139493 
L 55.580778 85.000918 
L 55.633989 78.305565 
L 55.687201 77.456064 
L 55.740412 90.936191 
L 55.900046 59.437354 
L 55.953257 105.535135 
L 56.006468 80.819596 
L 56.166102 73.984636 
L 56.219313 95.062386 
L 56.272524 62.33028 
L 56.325735 67.662883 
L 56.485369 98.364482 
L 56.591792 76.19409 
L 56.645003 94.386803 
L 56.804636 65.22041 
L 56.857848 81.012406 
L 56.911059 70.418525 
L 56.96427 52.579161 
L 57.070693 95.431509 
L 57.123904 87.827077 
L 57.177115 85.957421 
L 57.230326 62.70756 
L 57.283537 96.35108 
L 57.336749 66.699502 
L 57.38996 66.186176 
L 57.496382 80.318659 
L 57.549594 74.223658 
L 57.602805 71.43843 
L 57.656016 60.34188 
L 57.709227 93.914781 
L 57.762438 68.323105 
L 57.81565 82.462655 
L 57.868861 72.428186 
L 57.922072 55.611473 
L 57.975283 89.097069 
L 58.028495 65.242492 
L 58.081706 62.589245 
L 58.24134 80.47255 
L 58.294551 80.646064 
L 58.454184 65.441516 
L 58.613818 95.153034 
L 58.720241 59.405597 
L 58.773452 68.526002 
L 58.826663 71.249802 
L 58.879874 93.41949 
L 58.933085 86.171609 
L 59.039508 59.053089 
L 59.199142 95.582864 
L 59.252353 54.991621 
L 59.305564 81.223819 
L 59.358775 66.279065 
L 59.411986 99.041088 
L 59.465198 81.485619 
L 59.624831 67.556764 
L 59.678043 98.604164 
L 59.731254 63.650005 
L 59.784465 100.813063 
L 59.837676 97.789909 
L 59.99731 62.501211 
L 60.050521 82.900573 
L 60.103732 76.269608 
L 60.156944 68.068756 
L 60.210155 79.487622 
L 60.263366 65.30254 
L 60.316577 80.649917 
L 60.369789 81.694421 
L 60.423 80.688634 
L 60.476211 72.653646 
L 60.529422 78.556238 
L 60.582633 80.951254 
L 60.689056 54.674459 
L 60.742267 58.661706 
L 60.84869 100.410874 
L 60.901901 91.290424 
L 61.008323 69.398298 
L 61.061534 89.261492 
L 61.114746 79.659589 
L 61.167957 79.016456 
L 61.221168 75.909312 
L 61.274379 58.314449 
L 61.327591 65.532944 
L 61.434013 74.484483 
L 61.487224 58.84946 
L 61.540435 68.753551 
L 61.593647 102.381179 
L 61.646858 97.281393 
L 61.75328 44.395358 
L 61.806492 58.907287 
L 61.966125 90.408818 
L 62.019337 53.597762 
L 62.072548 92.658962 
L 62.125759 65.888513 
L 62.17897 79.750765 
L 62.232181 74.007935 
L 62.285393 76.827197 
L 62.338604 80.536564 
L 62.391815 57.331302 
L 62.498238 92.794223 
L 62.60466 71.202568 
L 62.764294 90.944237 
L 62.923927 47.321783 
L 63.03035 108.374744 
L 63.083561 93.972362 
L 63.189983 56.33237 
L 63.243195 73.696642 
L 63.296406 62.735055 
L 63.349617 70.46699 
L 63.402828 60.539709 
L 63.45604 85.757846 
L 63.509251 80.263942 
L 63.562462 67.331217 
L 63.615673 68.017655 
L 63.722096 78.190545 
L 63.775307 102.091676 
L 63.881729 101.007081 
L 63.934941 80.866087 
L 63.988152 87.70676 
L 64.041363 101.782433 
L 64.094574 74.751225 
L 64.147786 98.630392 
L 64.36063 54.44996 
L 64.467053 87.528313 
L 64.520264 51.842224 
L 64.573475 93.460679 
L 64.626687 49.966625 
L 64.679898 91.317623 
L 64.78632 70.259985 
L 64.839531 72.553201 
L 64.892743 81.106293 
L 64.945954 76.187931 
L 64.999165 76.952984 
L 65.052376 60.443582 
L 65.105588 91.556466 
L 65.158799 78.30204 
L 65.21201 72.485587 
L 65.265221 83.869842 
L 65.318432 47.681764 
L 65.371644 74.802423 
L 65.424855 73.522256 
L 65.478066 89.351107 
L 65.531277 69.109489 
L 65.584489 69.717537 
L 65.6377 98.235314 
L 65.690911 91.330111 
L 65.744122 84.675894 
L 65.797334 87.245594 
L 65.850545 89.962588 
L 66.010178 62.537462 
L 66.06339 89.896877 
L 66.116601 81.400814 
L 66.169812 83.278821 
L 66.276235 60.600084 
L 66.435868 78.338712 
L 66.595502 91.989955 
L 66.648713 60.165096 
L 66.701924 86.202242 
L 66.755136 67.146386 
L 66.808347 96.154124 
L 66.861558 85.200429 
L 66.914769 91.876897 
L 66.96798 62.708985 
L 67.021192 74.154516 
L 67.074403 73.90232 
L 67.234037 113.909031 
L 67.39367 56.517154 
L 67.446881 95.795258 
L 67.500093 82.995653 
L 67.553304 85.074918 
L 67.606515 82.502044 
L 67.659726 83.526863 
L 67.712938 64.44041 
L 67.766149 69.970301 
L 67.81936 77.66936 
L 67.925783 106.027366 
L 68.032205 55.28622 
L 68.085416 56.827914 
L 68.191839 107.82334 
L 68.351472 63.997678 
L 68.457895 64.206718 
L 68.564317 76.575955 
L 68.617528 56.573609 
L 68.777162 94.70166 
L 68.936796 70.971332 
L 68.990007 74.36449 
L 69.043218 94.779574 
L 69.096429 78.735843 
L 69.149641 81.17233 
L 69.202852 63.785297 
L 69.256063 76.405017 
L 69.309274 72.209692 
L 69.415697 82.824607 
L 69.468908 73.04604 
L 69.522119 80.363684 
L 69.575331 79.245938 
L 69.628542 85.932773 
L 69.788175 67.790347 
L 69.841387 80.03879 
L 70.00102 54.064136 
L 70.160654 86.209222 
L 70.213865 69.151267 
L 70.267076 83.809139 
L 70.320288 76.704581 
L 70.373499 91.702374 
L 70.42671 78.030246 
L 70.479921 67.255863 
L 70.533133 96.945696 
L 70.586344 87.561673 
L 70.639555 91.176052 
L 70.692766 38.051472 
L 70.745977 79.299635 
L 70.799189 77.32186 
L 70.958822 65.194842 
L 71.012034 84.910938 
L 71.065245 62.154197 
L 71.118456 104.676243 
L 71.171667 93.773479 
L 71.27809 79.090009 
L 71.384512 95.496728 
L 71.437723 69.364795 
L 71.490935 87.876356 
L 71.650568 66.460137 
L 71.70378 72.039167 
L 71.756991 93.661403 
L 71.916624 53.662089 
L 71.969836 94.006569 
L 72.023047 88.091114 
L 72.076258 84.392552 
L 72.129469 86.433559 
L 72.182681 100.904648 
L 72.289103 59.067531 
L 72.342314 75.507817 
L 72.448737 90.590763 
L 72.60837 65.847838 
L 72.661582 57.281021 
L 72.821215 94.516283 
L 72.874426 93.391368 
L 72.980849 60.176971 
L 73.03406 77.950816 
L 73.087271 83.735 
L 73.140483 121.948324 
L 73.300116 39.319408 
L 73.45975 84.065439 
L 73.512961 75.615586 
L 73.566172 93.853795 
L 73.619384 82.564757 
L 73.672595 86.371735 
L 73.725806 79.915328 
L 73.779017 81.620366 
L 73.832229 92.49045 
L 73.938651 57.776198 
L 73.991862 66.270028 
L 74.045073 84.394901 
L 74.098285 79.409522 
L 74.151496 69.122682 
L 74.257918 85.629786 
L 74.364341 56.934815 
L 74.417552 80.886741 
L 74.523974 79.170838 
L 74.577186 76.295498 
L 74.630397 84.473592 
L 74.683608 76.28608 
L 74.736819 72.838947 
L 74.790031 95.330412 
L 74.843242 85.053723 
L 74.949664 67.171069 
L 75.002875 86.115489 
L 75.109298 84.616055 
L 75.21572 67.966136 
L 75.375354 96.063972 
L 75.428565 69.911696 
L 75.481777 93.97251 
L 75.694621 69.531664 
L 75.747833 69.600395 
L 75.854255 61.966647 
L 75.907466 72.506014 
L 75.960678 56.85209 
L 76.120311 79.460648 
L 76.173522 90.94565 
L 76.226734 88.093215 
L 76.333156 65.744272 
L 76.386367 76.651333 
L 76.439579 80.021673 
L 76.49279 68.623293 
L 76.546001 78.361758 
L 76.599212 84.329344 
L 76.705635 69.128687 
L 76.758846 71.330964 
L 76.812057 100.356253 
L 76.865268 75.393789 
L 76.91848 84.559466 
L 76.971691 64.664416 
L 77.131325 101.451513 
L 77.184536 56.83474 
L 77.237747 86.962774 
L 77.290958 60.864296 
L 77.344169 89.95226 
L 77.397381 67.596245 
L 77.503803 95.420918 
L 77.663437 75.95038 
L 77.769859 71.33193 
L 77.82307 79.85805 
L 77.876282 70.413471 
L 77.929493 80.460054 
L 77.982704 74.278458 
L 78.035915 89.44455 
L 78.089127 65.976287 
L 78.142338 79.796903 
L 78.195549 96.035338 
L 78.355183 56.977599 
L 78.514816 104.560805 
L 78.568028 95.28825 
L 78.67445 65.076972 
L 78.727661 93.621363 
L 78.780872 68.233367 
L 78.887295 78.361351 
L 78.940506 63.746725 
L 79.10014 93.412637 
L 79.153351 89.343232 
L 79.206562 54.907531 
L 79.259774 79.210634 
L 79.312985 80.977181 
L 79.366196 99.93876 
L 79.419407 95.063754 
L 79.579041 46.795555 
L 79.685463 87.793801 
L 79.791886 78.083911 
L 79.845097 54.774238 
L 80.004731 102.134066 
L 80.164364 60.715014 
L 80.217576 90.16524 
L 80.270787 79.473282 
L 80.377209 47.602491 
L 80.536843 100.291628 
L 80.643265 66.213714 
L 80.696477 70.452575 
L 80.802899 97.529976 
L 80.85611 82.664939 
L 80.909322 77.840955 
L 80.962533 57.444652 
L 81.015744 58.702925 
L 81.122166 86.031456 
L 81.175378 75.220719 
L 81.228589 79.849546 
L 81.2818 60.790458 
L 81.335011 93.027718 
L 81.388223 74.026866 
L 81.441434 87.946017 
L 81.547856 50.740705 
L 81.70749 113.951541 
L 81.760701 57.578943 
L 81.813912 76.985974 
L 81.867124 66.638004 
L 81.920335 95.129135 
L 81.973546 89.350261 
L 82.026757 61.684234 
L 82.079968 68.552497 
L 82.13318 68.591233 
L 82.186391 93.791278 
L 82.239602 78.504749 
L 82.292813 74.417042 
L 82.346025 53.711644 
L 82.399236 92.50289 
L 82.452447 68.520089 
L 82.505658 80.099201 
L 82.558869 57.266588 
L 82.718503 95.745871 
L 82.771714 91.540505 
L 82.878137 58.010945 
L 83.037771 92.812672 
L 83.197404 60.051122 
L 83.357038 95.176397 
L 83.410249 54.095619 
L 83.46346 76.810392 
L 83.516672 74.684711 
L 83.569883 84.297561 
L 83.623094 68.445992 
L 83.676305 87.341027 
L 83.729516 80.547053 
L 83.835939 35.852916 
L 83.942361 93.980725 
L 83.995573 84.56828 
L 84.048784 57.734184 
L 84.101995 62.237645 
L 84.155206 86.536005 
L 84.208417 74.277763 
L 84.261629 74.086863 
L 84.31484 75.337911 
L 84.368051 83.842581 
L 84.421262 69.686917 
L 84.474474 76.565271 
L 84.634107 61.88157 
L 84.74053 75.696856 
L 84.793741 94.118841 
L 84.846952 84.320289 
L 84.900163 86.496588 
L 85.006586 58.75907 
L 85.16622 103.028426 
L 85.219431 61.688695 
L 85.272642 85.602007 
L 85.485487 56.709395 
L 85.538698 77.224585 
L 85.591909 68.907694 
L 85.751543 89.809175 
L 85.804754 81.336055 
L 85.964388 75.015949 
L 86.017599 70.8868 
L 86.124022 96.114862 
L 86.283655 66.018912 
L 86.336866 85.689035 
L 86.390078 80.233661 
L 86.443289 79.425854 
L 86.549711 67.088528 
L 86.602923 91.064271 
L 86.656134 55.760584 
L 86.709345 70.034525 
L 86.762556 66.943778 
L 86.868979 82.139634 
L 86.92219 58.093711 
L 86.975401 91.171464 
L 87.028612 80.502499 
L 87.081824 85.147434 
L 87.135035 74.808156 
L 87.241457 101.620568 
L 87.454302 74.615254 
L 87.507513 120.30238 
L 87.560725 59.160931 
L 87.613936 65.707072 
L 87.77357 108.352541 
L 87.933203 63.028199 
L 87.986414 88.839889 
L 88.039626 76.871339 
L 88.146048 64.698932 
L 88.252471 87.415185 
L 88.358893 56.528706 
L 88.465316 99.121781 
L 88.518527 95.781103 
L 88.67816 70.336905 
L 88.731372 87.006961 
L 88.784583 74.175825 
L 88.891005 67.84094 
L 88.997428 77.942686 
L 89.050639 57.855802 
L 89.10385 105.944735 
L 89.157061 78.142553 
L 89.210273 63.883364 
L 89.263484 76.537675 
L 89.316695 71.289953 
L 89.369906 80.801873 
L 89.476329 58.926732 
L 89.52954 86.205957 
L 89.582751 66.071162 
L 89.742385 89.918939 
L 89.795596 70.820826 
L 89.848807 72.739747 
L 89.902019 75.899948 
L 89.95523 69.590203 
L 90.114863 96.171811 
L 90.168075 73.454172 
L 90.221286 84.843092 
L 90.274497 80.377819 
L 90.327708 85.037608 
L 90.38092 96.751491 
L 90.434131 96.267763 
L 90.593765 61.315523 
L 90.806609 92.725353 
L 90.859821 83.950187 
L 90.913032 82.456255 
L 90.966243 92.028136 
L 91.019454 61.093059 
L 91.072666 93.816552 
L 91.125877 75.430186 
L 91.179088 98.817815 
L 91.232299 87.717676 
L 91.28551 95.140344 
L 91.391933 45.32543 
L 91.445144 61.347948 
L 91.551567 79.704116 
L 91.604778 64.282901 
L 91.657989 75.612538 
L 91.764411 71.639013 
L 91.924045 103.755658 
L 92.030468 59.045878 
L 92.083679 71.726009 
L 92.190101 101.090432 
L 92.349735 53.327582 
L 92.402946 85.650666 
L 92.456157 78.069889 
L 92.56258 75.353447 
L 92.669002 90.653769 
L 92.722214 51.359419 
L 92.775425 70.288137 
L 92.828636 65.612012 
L 92.98827 95.496958 
L 93.147903 55.254361 
L 93.201115 83.181599 
L 93.254326 70.43011 
L 93.307537 73.293705 
L 93.360748 68.295465 
L 93.467171 87.567936 
L 93.520382 84.914722 
L 93.573593 80.794118 
L 93.733227 36.707108 
L 93.839649 119.516524 
L 93.89286 47.158824 
L 93.946072 84.642332 
L 94.052494 64.721812 
L 94.105705 89.332294 
L 94.158917 69.150586 
L 94.265339 86.051657 
L 94.31855 51.86092 
L 94.371762 76.134416 
L 94.424973 94.921669 
L 94.531395 63.411227 
L 94.584606 76.22835 
L 94.637818 71.414725 
L 94.691029 61.449326 
L 94.74424 90.9201 
L 94.797451 88.383184 
L 94.957085 63.541112 
L 95.063507 90.964132 
L 95.16993 62.73441 
L 95.329564 109.064326 
L 95.382775 50.152973 
L 95.435986 91.485789 
L 95.489197 91.992073 
L 95.648831 67.633894 
L 95.702042 111.79056 
L 95.755253 84.991258 
L 95.861676 55.901278 
L 95.914887 79.851343 
L 95.968098 78.329187 
L 96.074521 63.295952 
L 96.180943 88.432716 
L 96.340577 39.108539 
L 96.500211 95.57403 
L 96.553422 81.183895 
L 96.606633 88.002867 
L 96.659844 86.329116 
L 96.713055 63.647355 
L 96.766267 93.559494 
L 96.819478 74.642834 
L 96.872689 79.22367 
L 96.9259 63.722427 
L 97.032323 85.10829 
L 97.085534 61.939689 
L 97.138745 66.914199 
L 97.191956 64.855361 
L 97.245168 48.636295 
L 97.404801 91.319694 
L 97.458013 62.251638 
L 97.511224 110.476764 
L 97.564435 90.461089 
L 97.617646 91.595109 
L 97.670857 64.964108 
L 97.724069 73.17448 
L 97.883702 84.089011 
L 98.043336 64.791792 
L 98.096547 59.406701 
L 98.149759 80.578919 
L 98.20297 66.853993 
L 98.362603 103.381143 
L 98.469026 70.879585 
L 98.522237 71.052632 
L 98.575448 98.210398 
L 98.62866 57.373825 
L 98.681871 86.820887 
L 98.735082 84.905844 
L 98.841504 54.267029 
L 98.894716 69.211131 
L 99.054349 109.691451 
L 99.107561 51.80712 
L 99.160772 76.311854 
L 99.213983 83.029811 
L 99.320405 34.534638 
L 99.373617 126.401199 
L 99.426828 71.022632 
L 99.480039 79.60436 
L 99.53325 112.661576 
L 99.586462 30.497617 
L 99.639673 86.014466 
L 99.692884 102.67347 
L 99.746095 47.506347 
L 99.799306 62.441743 
L 99.852518 83.197457 
L 99.95894 82.50463 
L 100.012151 82.920324 
L 100.171785 52.76055 
L 100.278208 101.071563 
L 100.38463 66.519635 
L 100.437841 89.984318 
L 100.491052 89.321696 
L 100.544264 65.182392 
L 100.597475 84.352787 
L 100.650686 77.833287 
L 100.703897 91.674144 
L 100.81032 64.283798 
L 100.916742 91.83767 
L 101.023165 63.372022 
L 101.076376 68.055381 
L 101.129587 98.934109 
L 101.182798 72.389203 
L 101.23601 67.837858 
L 101.289221 53.666584 
L 101.342432 77.88582 
L 101.395643 67.328616 
L 101.448854 68.921556 
L 101.502066 100.214231 
L 101.555277 85.023521 
L 101.608488 70.456947 
L 101.661699 73.315127 
L 101.714911 92.702894 
L 101.768122 76.410499 
L 101.821333 75.82699 
L 101.874544 63.908588 
L 101.927756 112.968174 
L 101.980967 83.964021 
L 102.034178 85.849908 
L 102.087389 64.604741 
L 102.1406 81.987481 
L 102.193812 85.517934 
L 102.353445 70.610943 
L 102.513079 91.955727 
L 102.619501 70.929872 
L 102.672713 79.799546 
L 102.725924 50.987767 
L 102.885558 116.521391 
L 102.938769 105.943698 
L 102.99198 72.445365 
L 103.045191 81.657621 
L 103.098402 78.317581 
L 103.151614 89.181198 
L 103.258036 56.374418 
L 103.311247 78.18256 
L 103.364459 70.298888 
L 103.41767 68.737549 
L 103.524092 85.272914 
L 103.577303 92.090801 
L 103.683726 55.831069 
L 103.790148 65.953813 
L 103.84336 83.761273 
L 103.896571 74.151185 
L 103.949782 59.03074 
L 104.002993 70.827453 
L 104.056205 74.27626 
L 104.109416 72.270688 
L 104.269049 99.014885 
L 104.322261 56.478146 
L 104.375472 89.349254 
L 104.535106 54.257807 
L 104.641528 90.111099 
L 104.694739 75.097605 
L 104.74795 64.501225 
L 104.907584 90.334206 
L 105.067218 71.678938 
L 105.120429 94.257818 
L 105.17364 73.487871 
L 105.333274 100.005818 
L 105.386485 94.111709 
L 105.439696 54.220481 
L 105.546119 56.525915 
L 105.652541 88.458748 
L 105.705753 81.871559 
L 105.758964 80.883313 
L 105.812175 69.678862 
L 105.865386 85.20469 
L 105.918597 66.546877 
L 105.971809 79.254691 
L 106.02502 69.246235 
L 106.078231 97.682342 
L 106.131442 62.645489 
L 106.184654 83.345299 
L 106.237865 80.841137 
L 106.291076 64.919642 
L 106.344287 91.303098 
L 106.397498 71.1693 
L 106.45071 81.495767 
L 106.503921 59.428732 
L 106.663555 100.600492 
L 106.769977 73.129644 
L 106.823188 77.313202 
L 106.929611 95.156575 
L 106.982822 86.527088 
L 107.036033 84.836953 
L 107.089244 72.340677 
L 107.142456 104.436541 
L 107.195667 88.364529 
L 107.302089 62.622008 
L 107.408512 79.016193 
L 107.461723 72.66611 
L 107.514934 79.640629 
L 107.568145 111.722009 
L 107.621357 100.312496 
L 107.727779 76.981426 
L 107.887413 98.953384 
L 107.940624 28.445754 
L 107.993835 99.54309 
L 108.047046 111.362074 
L 108.100258 63.196354 
L 108.153469 96.720622 
L 108.20668 69.039509 
L 108.259891 76.587643 
L 108.313103 101.125547 
L 108.366314 42.949126 
L 108.419525 63.746318 
L 108.472736 93.460248 
L 108.525947 63.924803 
L 108.579159 57.899515 
L 108.685581 91.479041 
L 108.738792 89.416408 
L 108.792004 86.868828 
L 108.898426 53.184759 
L 109.05806 104.314322 
L 109.111271 76.50841 
L 109.164482 83.732997 
L 109.270905 115.985525 
L 109.430538 55.405376 
L 109.643383 97.726381 
L 109.696594 94.572155 
L 109.803017 65.133127 
L 109.856228 93.386165 
L 109.962651 92.305794 
L 110.015862 67.29028 
L 110.069073 84.586272 
L 110.122284 84.18303 
L 110.175495 81.572978 
L 110.228707 96.509208 
L 110.38834 48.373809 
L 110.441552 79.673874 
L 110.494763 64.2104 
L 110.601185 82.311756 
L 110.654396 74.257513 
L 110.707608 92.386202 
L 110.760819 89.517645 
L 110.81403 89.460099 
L 110.867241 77.306632 
L 110.920453 79.003409 
L 110.973664 82.105467 
L 111.133297 69.048807 
L 111.186509 89.676158 
L 111.23972 69.447981 
L 111.399354 85.171063 
L 111.505776 68.562463 
L 111.558987 91.970979 
L 111.612199 76.752597 
L 111.66541 61.005845 
L 111.718621 73.397191 
L 111.771832 88.286084 
L 111.825043 138.233311 
L 111.931466 48.21135 
L 111.984677 120.36007 
L 112.037888 66.86894 
L 112.0911 69.153673 
L 112.144311 102.139871 
L 112.197522 69.04264 
L 112.303944 97.391919 
L 112.463578 70.138911 
L 112.516789 57.065941 
L 112.570001 88.036177 
L 112.623212 85.950248 
L 112.676423 77.54652 
L 112.729634 85.576087 
L 112.782845 97.514661 
L 112.836057 50.843862 
L 112.889268 102.635151 
L 112.942479 54.684922 
L 113.048902 80.697751 
L 113.102113 62.110946 
L 113.208535 104.644601 
L 113.261747 85.59171 
L 113.42138 64.498727 
L 113.474591 101.031295 
L 113.527803 87.382346 
L 113.581014 34.81776 
L 113.634225 81.079048 
L 113.687436 53.858886 
L 113.740648 56.122998 
L 113.900281 89.31489 
L 114.006704 51.602298 
L 114.059915 89.776376 
L 114.113126 51.067288 
L 114.219549 89.425845 
L 114.27276 80.713774 
L 114.325971 67.910906 
L 114.379182 88.816606 
L 114.432393 53.952122 
L 114.485605 85.166506 
L 114.592027 75.775787 
L 114.645238 82.989504 
L 114.69845 65.593878 
L 114.804872 96.966192 
L 114.858083 94.057601 
L 114.964506 79.354167 
L 115.017717 90.505071 
L 115.070928 88.89545 
L 115.230562 62.547179 
L 115.443407 104.39435 
L 115.60304 64.479391 
L 115.656252 70.483827 
L 115.709463 69.074782 
L 115.762674 66.097621 
L 115.922308 123.17907 
L 115.975519 93.982737 
L 116.02873 91.15914 
L 116.081941 60.74228 
L 116.135153 83.940557 
L 116.241575 81.376752 
L 116.294786 59.26373 
L 116.347998 78.753812 
L 116.401209 65.339365 
L 116.45442 97.252028 
L 116.507631 71.60985 
L 116.560842 62.855674 
L 116.720476 79.115216 
L 116.773687 66.999267 
L 116.826899 73.305197 
L 116.88011 94.729644 
L 116.933321 61.675157 
L 116.986532 75.661637 
L 117.039744 68.697946 
L 117.092955 78.830823 
L 117.146166 72.378388 
L 117.199377 50.929335 
L 117.252588 70.85024 
L 117.3058 72.538076 
L 117.359011 82.597906 
L 117.412222 69.955463 
L 117.518645 90.502941 
L 117.571856 88.857004 
L 117.678278 73.832077 
L 117.731489 75.122937 
L 117.784701 97.549656 
L 117.837912 86.36442 
L 117.891123 82.203714 
L 117.944334 43.607655 
L 117.997546 66.602367 
L 118.103968 95.385184 
L 118.157179 89.295229 
L 118.21039 73.442021 
L 118.263602 78.503777 
L 118.316813 79.450036 
L 118.370024 61.121211 
L 118.476447 62.569295 
L 118.529658 78.094383 
L 118.582869 56.323458 
L 118.63608 75.965822 
L 118.689291 84.51757 
L 118.742503 76.393409 
L 118.795714 77.715583 
L 118.848925 68.697848 
L 118.902136 92.392132 
L 118.955348 61.746083 
L 119.008559 90.380167 
L 119.06177 65.592109 
L 119.114981 79.332795 
L 119.168193 70.671012 
L 119.221404 94.452208 
L 119.274615 77.868749 
L 119.327826 80.784547 
L 119.381037 70.3627 
L 119.434249 92.585868 
L 119.48746 58.7414 
L 119.540671 70.246747 
L 119.593882 100.361622 
L 119.647094 38.234361 
L 119.700305 74.011146 
L 119.753516 113.664572 
L 119.806727 57.045588 
L 119.859938 89.212656 
L 119.91315 115.009481 
L 119.966361 75.579398 
L 120.072783 78.783147 
L 120.125995 52.303463 
L 120.179206 97.352901 
L 120.232417 62.581865 
L 120.498473 99.244428 
L 120.604896 68.404832 
L 120.658107 93.680607 
L 120.711318 74.973067 
L 120.817741 100.253057 
L 120.870952 56.049211 
L 120.924163 74.377572 
L 120.977374 75.230403 
L 121.137008 66.399433 
L 121.296642 99.900945 
L 121.509486 63.973825 
L 121.66912 117.29934 
L 121.828754 46.612195 
L 121.935176 84.046929 
L 121.988387 77.893494 
L 122.041599 71.009918 
L 122.09481 74.984379 
L 122.148021 90.725703 
L 122.201232 63.408688 
L 122.254444 83.01658 
L 122.414077 64.515397 
L 122.5205 97.811062 
L 122.573711 73.875634 
L 122.626922 80.644737 
L 122.786556 90.023199 
L 122.839767 69.886924 
L 122.94619 71.158829 
L 123.052612 90.985189 
L 123.105823 89.666443 
L 123.212246 53.599193 
L 123.371879 90.9007 
L 123.425091 59.832351 
L 123.478302 78.547279 
L 123.531513 77.736284 
L 123.584724 64.113415 
L 123.637935 100.418371 
L 123.691147 69.636191 
L 123.744358 82.975529 
L 123.797569 49.389259 
L 123.85078 65.032891 
L 123.903992 90.046104 
L 123.957203 71.942523 
L 124.010414 76.199712 
L 124.116836 57.461795 
L 124.170048 101.465492 
L 124.223259 80.00595 
L 124.27647 91.930161 
L 124.329681 60.206845 
L 124.382893 66.482207 
L 124.436104 86.531321 
L 124.489315 79.828901 
L 124.542526 79.537157 
L 124.595737 78.455072 
L 124.648949 65.945056 
L 124.70216 94.580686 
L 124.755371 75.268918 
L 124.808582 81.86507 
L 124.861794 75.110153 
L 124.915005 74.256399 
L 125.074639 97.700878 
L 125.181061 62.031818 
L 125.234272 66.799096 
L 125.287483 72.277502 
L 125.340695 100.887493 
L 125.393906 98.569363 
L 125.500328 66.836932 
L 125.606751 101.690746 
L 125.659962 83.284286 
L 125.713173 70.54578 
L 125.766384 75.676271 
L 125.872807 87.320038 
L 125.979229 60.715811 
L 126.032441 64.671556 
L 126.085652 95.277249 
L 126.138863 94.665206 
L 126.245285 66.676209 
L 126.298497 67.444537 
L 126.404919 81.302864 
L 126.45813 78.790807 
L 126.564553 54.641348 
L 126.617764 92.317005 
L 126.670975 87.34643 
L 126.830609 49.411765 
L 126.990243 98.720827 
L 127.043454 78.935813 
L 127.096665 84.359086 
L 127.149876 83.199021 
L 127.362721 48.229078 
L 127.522355 105.655432 
L 127.628777 69.414647 
L 127.681989 78.408635 
L 127.7352 62.457434 
L 127.788411 77.112279 
L 127.841622 72.236898 
L 127.894833 83.496045 
L 127.948045 66.510971 
L 128.001256 80.19583 
L 128.054467 88.213711 
L 128.107678 81.469084 
L 128.16089 82.169305 
L 128.214101 81.627941 
L 128.267312 78.382158 
L 128.320523 91.820334 
L 128.480157 53.93776 
L 128.533368 92.266178 
L 128.586579 76.589841 
L 128.746213 88.951693 
L 128.799424 57.963427 
L 128.852636 74.538332 
L 128.905847 72.259787 
L 128.959058 78.291591 
L 129.012269 52.721371 
L 129.06548 78.558751 
L 129.118692 102.247794 
L 129.171903 86.131072 
L 129.225114 87.318524 
L 129.278325 76.829932 
L 129.331537 83.230681 
L 129.384748 82.988025 
L 129.49117 77.247095 
L 129.544381 63.461614 
L 129.597593 87.812885 
L 129.650804 69.372341 
L 129.810438 91.701365 
L 129.91686 70.572828 
L 129.970071 88.007704 
L 130.023282 38.187405 
L 130.076494 77.674019 
L 130.129705 69.116941 
L 130.182916 125.780889 
L 130.236127 66.246305 
L 130.289339 63.181896 
L 130.34255 87.684602 
L 130.395761 60.956074 
L 130.448972 71.273145 
L 130.502184 116.666044 
L 130.555395 80.622007 
L 130.608606 45.498377 
L 130.661817 81.362402 
L 130.715028 61.661594 
L 130.821451 100.038635 
L 130.927873 65.845032 
L 131.087507 100.301687 
L 131.140718 51.176276 
L 131.193929 62.432972 
L 131.300352 85.298986 
L 131.353563 76.350227 
L 131.459986 62.773373 
L 131.513197 68.321614 
L 131.619619 94.27796 
L 131.779253 62.953827 
L 131.992098 101.639503 
L 132.151731 70.03797 
L 132.258154 78.294233 
L 132.311365 67.64699 
L 132.470999 95.343697 
L 132.630633 64.354589 
L 132.790266 101.676574 
L 132.9499 61.192119 
L 133.003111 60.187182 
L 133.162745 90.672977 
L 133.322378 55.581413 
L 133.482012 100.839388 
L 133.535223 63.252062 
L 133.641646 63.463608 
L 133.694857 85.167583 
L 133.748068 71.988876 
L 133.801279 75.742037 
L 133.854491 49.04151 
L 134.014124 90.499622 
L 134.067336 87.45122 
L 134.120547 66.562158 
L 134.226969 66.90022 
L 134.280181 87.632664 
L 134.333392 72.828428 
L 134.386603 63.259414 
L 134.439814 82.444342 
L 134.493025 60.274189 
L 134.546237 81.563408 
L 134.70587 62.713692 
L 134.865504 86.558332 
L 134.918715 69.486748 
L 134.971926 86.260514 
L 135.078349 76.554557 
L 135.13156 80.892514 
L 135.237983 65.848816 
L 135.291194 67.589567 
L 135.397616 83.076903 
L 135.504039 46.655693 
L 135.663672 93.168729 
L 135.716884 51.900739 
L 135.770095 88.149866 
L 135.823306 75.218399 
L 135.876517 84.090827 
L 135.98294 70.2333 
L 136.089362 72.368708 
L 136.142573 91.560124 
L 136.195785 76.181132 
L 136.248996 71.58504 
L 136.302207 82.577179 
L 136.355418 77.53544 
L 136.40863 78.344801 
L 136.461841 85.81093 
L 136.621474 66.495199 
L 136.674686 102.816332 
L 136.727897 81.767181 
L 136.781108 81.445385 
L 136.834319 82.863378 
L 136.940742 75.920566 
L 137.047164 65.32082 
L 137.153587 101.911727 
L 137.206798 94.388556 
L 137.31322 65.779046 
L 137.366432 85.54702 
L 137.419643 69.537933 
L 137.472854 61.349166 
L 137.579276 83.1912 
L 137.632488 79.844301 
L 137.792121 53.138223 
L 137.845333 87.327241 
L 137.898544 59.250539 
L 138.111389 120.187162 
L 138.271022 64.773367 
L 138.377445 84.705652 
L 138.430656 61.13703 
L 138.483867 63.088243 
L 138.537079 89.545665 
L 138.59029 75.687686 
L 138.643501 79.131454 
L 138.696712 69.257261 
L 138.749923 88.513421 
L 138.803135 83.771994 
L 138.909557 58.696661 
L 138.962768 58.743795 
L 139.01598 59.744043 
L 139.069191 92.126849 
L 139.122402 72.04346 
L 139.282036 93.022809 
L 139.335247 84.312997 
L 139.441669 59.049037 
L 139.601303 99.886565 
L 139.760937 66.086965 
L 139.814148 106.655259 
L 139.867359 74.848593 
L 139.92057 99.067201 
L 139.973782 70.669665 
L 140.026993 79.613269 
L 140.080204 104.604646 
L 140.239838 60.060776 
L 140.293049 87.477843 
L 140.34626 66.605535 
L 140.505894 92.376293 
L 140.612316 67.734819 
L 140.77195 91.542257 
L 140.825161 66.686211 
L 140.878372 77.773487 
L 140.931584 70.364848 
L 141.038006 101.875426 
L 141.091217 80.71989 
L 141.250851 66.771403 
L 141.304062 88.580969 
L 141.357273 62.473966 
L 141.410485 72.667762 
L 141.463696 89.928383 
L 141.516907 74.244151 
L 141.570118 82.439481 
L 141.62333 63.229454 
L 141.676541 76.526133 
L 141.729752 80.644902 
L 141.782963 75.846464 
L 141.836175 84.436537 
L 141.889386 78.505145 
L 141.942597 79.618837 
L 142.102231 72.506596 
L 142.155442 90.475335 
L 142.208653 88.986124 
L 142.261864 84.096321 
L 142.315076 60.400969 
L 142.368287 63.886358 
L 142.474709 90.401697 
L 142.634343 64.633098 
L 142.740765 61.367533 
L 143.006821 90.633721 
L 143.113244 91.112202 
L 143.219666 71.732773 
L 143.272878 77.805536 
L 143.326089 72.840799 
L 143.3793 76.616494 
L 143.432511 90.570651 
L 143.592145 61.633249 
L 143.645356 97.600404 
L 143.698567 85.814421 
L 143.80499 72.559957 
L 143.858201 90.365943 
L 143.911412 67.103446 
L 143.964624 74.977151 
L 144.017835 79.103117 
L 144.071046 77.627757 
L 144.124257 72.804552 
L 144.177468 49.665004 
L 144.23068 87.339837 
L 144.283891 60.162532 
L 144.337102 63.161849 
L 144.390313 54.919058 
L 144.496736 97.239469 
L 144.549947 87.170991 
L 144.603158 72.559735 
L 144.656369 98.737297 
L 144.709581 64.313817 
L 144.762792 78.536282 
L 144.816003 73.361392 
L 144.869214 97.628549 
L 144.922426 73.817402 
L 145.028848 85.026797 
L 145.082059 74.599652 
L 145.13527 76.174493 
L 145.241693 99.360479 
L 145.401327 60.878892 
L 145.56096 100.972491 
L 145.667383 66.578192 
L 145.827016 100.775361 
L 145.98665 49.030437 
L 146.093073 99.080136 
L 146.146284 70.551329 
L 146.252706 82.0228 
L 146.305917 74.207124 
L 146.359129 74.865135 
L 146.465551 97.121989 
L 146.625185 84.38473 
L 146.678396 98.584784 
L 146.83803 31.250851 
L 146.944452 85.226229 
L 146.997663 80.557198 
L 147.050875 68.262927 
L 147.104086 78.798502 
L 147.210508 107.348221 
L 147.370142 56.426819 
L 147.529776 110.585511 
L 147.689409 61.37042 
L 147.742621 82.485292 
L 147.795832 65.344792 
L 147.902254 64.878258 
L 147.955465 98.002836 
L 148.008677 82.950073 
L 148.061888 99.620689 
L 148.115099 88.63208 
L 148.16831 86.542647 
L 148.221522 68.448443 
L 148.274733 86.2746 
L 148.434366 61.419895 
L 148.487578 78.815059 
L 148.540789 58.972565 
L 148.594 82.089449 
L 148.647211 77.835925 
L 148.700423 79.030009 
L 148.753634 70.668067 
L 148.860056 103.84901 
L 148.913267 94.759059 
L 149.072901 71.254943 
L 149.126112 92.899288 
L 149.232535 91.204002 
L 149.44538 74.797595 
L 149.498591 79.402991 
L 149.551802 66.937576 
L 149.605013 78.684748 
L 149.658225 80.606437 
L 149.711436 93.229526 
L 149.87107 63.916669 
L 150.137126 90.907513 
L 150.190337 55.904313 
L 150.243548 78.039922 
L 150.296759 68.038249 
L 150.349971 103.567078 
L 150.403182 86.978312 
L 150.509604 60.572057 
L 150.562815 44.565062 
L 150.616027 48.040534 
L 150.77566 116.611074 
L 150.882083 51.421859 
L 150.935294 99.507776 
L 150.988505 58.526911 
L 151.041716 86.468318 
L 151.094928 79.951844 
L 151.148139 30.456596 
L 151.20135 100.530925 
L 151.254561 99.123485 
L 151.307773 25.750441 
L 151.360984 107.609457 
L 151.414195 53.909924 
L 151.467406 38.03206 
L 151.520618 114.917897 
L 151.573829 70.530522 
L 151.62704 75.966681 
L 151.680251 94.337761 
L 151.733462 60.027538 
L 151.786674 80.282055 
L 151.839885 88.514511 
L 151.893096 80.568826 
L 151.946307 78.729575 
L 151.999519 95.16711 
L 152.05273 75.372799 
L 152.105941 80.4165 
L 152.159152 95.501123 
L 152.371997 52.050224 
L 152.425208 92.962881 
L 152.47842 52.737212 
L 152.638053 79.281164 
L 152.691264 77.033701 
L 152.744476 68.988426 
L 152.904109 102.574265 
L 152.957321 76.959089 
L 152.957321 76.959089 
" clip-path="url(#p73b507b502)" style="fill: none; stroke: #b64342; stroke-width: 0.65; stroke-linecap: square"/>
   </g>
   <g id="patch_3">
    <path d="M 38.587773 143.857454 
L 38.587773 20.126297 
" style="fill: none; stroke: #000000; stroke-width: 0.75; stroke-linejoin: miter; stroke-linecap: square"/>
   </g>
   <g id="patch_4">
    <path d="M 38.587773 143.857454 
L 158.40349 143.857454 
" style="fill: none; stroke: #000000; stroke-width: 0.75; stroke-linejoin: miter; stroke-linecap: square"/>
   </g>
   <g id="text_10">
    <text style="font-size: 5.9px; font-family: 'Arial', 'Helvetica', 'DejaVu Sans', sans-serif; text-anchor: start; fill: #3a3a3a" x="40.984088" y="34.320151" transform="rotate(-0 40.984088 34.320151)">healthy slot 13, round 0</text>
   </g>
   <g id="text_11">
    <text style="font-weight: 700; font-size: 8.5px; font-family: 'Arial', 'Helvetica', 'DejaVu Sans', sans-serif; text-anchor: start" x="24.209888" y="13.388232" transform="rotate(-0 24.209888 13.388232)">a</text>
   </g>
   <g id="text_12">
    <text style="font-size: 7.6px; font-family: 'Arial', 'Helvetica', 'DejaVu Sans', sans-serif; text-anchor: middle" x="98.495631" y="14.126297" transform="rotate(-0 98.495631 14.126297)">Rejected healthy candidate</text>
   </g>
  </g>
  <g id="axes_2">
   <g id="patch_5">
    <path d="M 210.23349 143.857454 
L 335.495374 143.857454 
L 335.495374 20.126297 
L 210.23349 20.126297 
z
" style="fill: #ffffff"/>
   </g>
   <g id="matplotlib.axis_3">
    <g id="xtick_4">
     <g id="line2d_9">
      <g>
       <use xlink:href="#mc4ef6bea98" x="210.23349" y="143.857454" style="stroke: #000000; stroke-width: 0.8"/>
      </g>
     </g>
     <g id="text_13">
      <text style="font-size: 7px; font-family: 'Arial', 'Helvetica', 'DejaVu Sans', sans-serif; text-anchor: middle" x="210.23349" y="155.953646" transform="rotate(-0 210.23349 155.953646)">0</text>
     </g>
    </g>
    <g id="xtick_5">
     <g id="line2d_10">
      <g>
       <use xlink:href="#mc4ef6bea98" x="241.548961" y="143.857454" style="stroke: #000000; stroke-width: 0.8"/>
      </g>
     </g>
     <g id="text_14">
      <text style="font-size: 7px; font-family: 'Arial', 'Helvetica', 'DejaVu Sans', sans-serif; text-anchor: middle" x="241.548961" y="155.953646" transform="rotate(-0 241.548961 155.953646)">50</text>
     </g>
    </g>
    <g id="xtick_6">
     <g id="line2d_11">
      <g>
       <use xlink:href="#mc4ef6bea98" x="272.864432" y="143.857454" style="stroke: #000000; stroke-width: 0.8"/>
      </g>
     </g>
     <g id="text_15">
      <text style="font-size: 7px; font-family: 'Arial', 'Helvetica', 'DejaVu Sans', sans-serif; text-anchor: middle" x="272.864432" y="155.953646" transform="rotate(-0 272.864432 155.953646)">100</text>
     </g>
    </g>
    <g id="xtick_7">
     <g id="line2d_12">
      <g>
       <use xlink:href="#mc4ef6bea98" x="304.179903" y="143.857454" style="stroke: #000000; stroke-width: 0.8"/>
      </g>
     </g>
     <g id="text_16">
      <text style="font-size: 7px; font-family: 'Arial', 'Helvetica', 'DejaVu Sans', sans-serif; text-anchor: middle" x="304.179903" y="155.953646" transform="rotate(-0 304.179903 155.953646)">150</text>
     </g>
    </g>
    <g id="xtick_8">
     <g id="line2d_13">
      <g>
       <use xlink:href="#mc4ef6bea98" x="335.495374" y="143.857454" style="stroke: #000000; stroke-width: 0.8"/>
      </g>
     </g>
     <g id="text_17">
      <text style="font-size: 7px; font-family: 'Arial', 'Helvetica', 'DejaVu Sans', sans-serif; text-anchor: middle" x="335.495374" y="155.953646" transform="rotate(-0 335.495374 155.953646)">200</text>
     </g>
    </g>
    <g id="text_18">
     <text style="font-size: 7px; font-family: 'Arial', 'Helvetica', 'DejaVu Sans', sans-serif; text-anchor: middle" x="272.864432" y="166.522982" transform="rotate(-0 272.864432 166.522982)">Frequency [Hz]</text>
    </g>
   </g>
   <g id="matplotlib.axis_4">
    <g id="ytick_5">
     <g id="line2d_14">
      <g>
       <use xlink:href="#m649e26307f" x="210.23349" y="143.857454" style="stroke: #000000; stroke-width: 0.8"/>
      </g>
     </g>
     <g id="text_19">
      <text style="font-size: 7px; font-family: 'Arial', 'Helvetica', 'DejaVu Sans', sans-serif; text-anchor: end" x="203.23349" y="146.40555" transform="rotate(-0 203.23349 146.40555)">0.0</text>
     </g>
    </g>
    <g id="ytick_6">
     <g id="line2d_15">
      <g>
       <use xlink:href="#m649e26307f" x="210.23349" y="120.289615" style="stroke: #000000; stroke-width: 0.8"/>
      </g>
     </g>
     <g id="text_20">
      <text style="font-size: 7px; font-family: 'Arial', 'Helvetica', 'DejaVu Sans', sans-serif; text-anchor: end" x="203.23349" y="122.837711" transform="rotate(-0 203.23349 122.837711)">0.2</text>
     </g>
    </g>
    <g id="ytick_7">
     <g id="line2d_16">
      <g>
       <use xlink:href="#m649e26307f" x="210.23349" y="96.721775" style="stroke: #000000; stroke-width: 0.8"/>
      </g>
     </g>
     <g id="text_21">
      <text style="font-size: 7px; font-family: 'Arial', 'Helvetica', 'DejaVu Sans', sans-serif; text-anchor: end" x="203.23349" y="99.269871" transform="rotate(-0 203.23349 99.269871)">0.4</text>
     </g>
    </g>
    <g id="ytick_8">
     <g id="line2d_17">
      <g>
       <use xlink:href="#m649e26307f" x="210.23349" y="73.153936" style="stroke: #000000; stroke-width: 0.8"/>
      </g>
     </g>
     <g id="text_22">
      <text style="font-size: 7px; font-family: 'Arial', 'Helvetica', 'DejaVu Sans', sans-serif; text-anchor: end" x="203.23349" y="75.702032" transform="rotate(-0 203.23349 75.702032)">0.6</text>
     </g>
    </g>
    <g id="ytick_9">
     <g id="line2d_18">
      <g>
       <use xlink:href="#m649e26307f" x="210.23349" y="49.586096" style="stroke: #000000; stroke-width: 0.8"/>
      </g>
     </g>
     <g id="text_23">
      <text style="font-size: 7px; font-family: 'Arial', 'Helvetica', 'DejaVu Sans', sans-serif; text-anchor: end" x="203.23349" y="52.134192" transform="rotate(-0 203.23349 52.134192)">0.8</text>
     </g>
    </g>
    <g id="ytick_10">
     <g id="line2d_19">
      <g>
       <use xlink:href="#m649e26307f" x="210.23349" y="26.018257" style="stroke: #000000; stroke-width: 0.8"/>
      </g>
     </g>
     <g id="text_24">
      <text style="font-size: 7px; font-family: 'Arial', 'Helvetica', 'DejaVu Sans', sans-serif; text-anchor: end" x="203.23349" y="28.566353" transform="rotate(-0 203.23349 28.566353)">1.0</text>
     </g>
    </g>
    <g id="text_25">
     <text style="font-size: 7px; font-family: 'Arial', 'Helvetica', 'DejaVu Sans', sans-serif; text-anchor: middle" x="188.030208" y="81.991876" transform="rotate(-90 188.030208 81.991876)">Envelope norm. mag.</text>
    </g>
   </g>
   <g id="line2d_20">
    <path d="M 210.23349 137.245601 
L 212.680011 129.868379 
L 215.126532 103.812972 
L 217.573053 122.323937 
L 220.019574 119.926992 
L 222.466095 112.232754 
L 224.912617 123.076403 
L 227.359138 127.79042 
L 229.805659 135.765029 
L 232.25218 124.294425 
L 234.698701 110.364534 
L 237.145223 108.764838 
L 239.591744 111.808823 
L 242.038265 109.336977 
L 244.484786 140.29994 
L 246.931307 113.433872 
L 249.377829 135.812546 
L 251.82435 83.795884 
L 254.270871 26.018258 
L 256.717392 48.151898 
L 259.163913 120.48152 
L 261.610435 128.058879 
L 264.056956 118.429359 
L 266.503477 117.870417 
L 268.949998 123.403311 
L 271.396519 130.356198 
L 273.84304 126.377249 
L 276.289562 106.533572 
L 278.736083 107.467419 
L 281.182604 137.76764 
L 283.629125 133.145807 
L 286.075646 135.519122 
L 288.522168 126.493561 
L 290.968689 118.133057 
L 293.41521 110.98725 
L 295.861731 93.734154 
L 298.308252 74.555758 
L 300.754774 89.239032 
L 303.201295 105.247754 
L 305.647816 72.645745 
L 308.094337 87.745886 
L 310.540858 120.25617 
L 312.98738 119.324066 
L 315.433901 133.626412 
L 317.880422 83.933846 
L 320.326943 103.935098 
L 322.773464 128.236235 
L 325.219985 129.27634 
L 327.666507 104.925313 
L 330.113028 88.127938 
L 332.559549 113.933814 
L 335.00607 134.190846 
" clip-path="url(#p45698b79c2)" style="fill: none; stroke: #b64342; stroke-width: 0.85; stroke-linecap: square"/>
   </g>
   <g id="line2d_21">
    <path d="M 256.543735 143.857454 
L 256.543735 20.126297 
" clip-path="url(#p45698b79c2)" style="fill: none; stroke-dasharray: 3.33,1.44; stroke-dashoffset: 0; stroke: #b64342; stroke-width: 0.9"/>
   </g>
   <g id="patch_6">
    <path d="M 210.23349 143.857454 
L 210.23349 20.126297 
" style="fill: none; stroke: #000000; stroke-width: 0.75; stroke-linejoin: miter; stroke-linecap: square"/>
   </g>
   <g id="patch_7">
    <path d="M 210.23349 143.857454 
L 335.495374 143.857454 
" style="fill: none; stroke: #000000; stroke-width: 0.75; stroke-linejoin: miter; stroke-linecap: square"/>
   </g>
   <g id="text_26">
    <text style="font-size: 5.8px; font-family: 'Arial', 'Helvetica', 'DejaVu Sans', sans-serif; fill: #b64342" transform="translate(255.32313 43.623231) rotate(-90)">BPFI</text>
   </g>
   <g id="text_27">
    <text style="font-weight: 700; font-size: 8.5px; font-family: 'Arial', 'Helvetica', 'DejaVu Sans', sans-serif; text-anchor: start" x="195.202063" y="13.388232" transform="rotate(-0 195.202063 13.388232)">b</text>
   </g>
   <g id="text_28">
    <text style="font-size: 7.4px; font-family: 'Arial', 'Helvetica', 'DejaVu Sans', sans-serif; text-anchor: middle" x="272.864432" y="14.126297" transform="rotate(-0 272.864432 14.126297)">Forbidden IR evidence, band 200-1200 Hz</text>
   </g>
  </g>
  <g id="axes_3">
   <g id="patch_8">
    <path d="M 387.325374 143.857454 
L 496.248753 143.857454 
L 496.248753 20.126297 
L 387.325374 20.126297 
z
" style="fill: #ffffff"/>
   </g>
   <g id="patch_9">
    <path d="M 387.325374 25.750441 
L 491.061925 25.750441 
L 491.061925 37.86398 
L 387.325374 37.86398 
z
" clip-path="url(#p2797d53d30)" style="fill: #b64342; stroke: #000000; stroke-width: 0.45; stroke-linejoin: miter"/>
   </g>
   <g id="patch_10">
    <path d="M 387.325374 69.013083 
L 446.61848 69.013083 
L 446.61848 81.126623 
L 387.325374 81.126623 
z
" clip-path="url(#p2797d53d30)" style="fill: #b64342; stroke: #000000; stroke-width: 0.45; stroke-linejoin: miter"/>
   </g>
   <g id="patch_11">
    <path d="M 387.325374 112.275725 
L 421.413191 112.275725 
L 421.413191 124.389265 
L 387.325374 124.389265 
z
" clip-path="url(#p2797d53d30)" style="fill: #b64342; stroke: #000000; stroke-width: 0.45; stroke-linejoin: miter"/>
   </g>
   <g id="patch_12">
    <path d="M 387.325374 39.594486 
L 429.452054 39.594486 
L 429.452054 51.708026 
L 387.325374 51.708026 
z
" clip-path="url(#p2797d53d30)" style="fill: #d8d8d8; stroke: #000000; stroke-width: 0.45; stroke-linejoin: miter"/>
   </g>
   <g id="patch_13">
    <path d="M 387.325374 82.857129 
L 434.811864 82.857129 
L 434.811864 94.970668 
L 387.325374 94.970668 
z
" clip-path="url(#p2797d53d30)" style="fill: #d8d8d8; stroke: #000000; stroke-width: 0.45; stroke-linejoin: miter"/>
   </g>
   <g id="patch_14">
    <path d="M 387.325374 126.119771 
L 432.367458 126.119771 
L 432.367458 138.233311 
L 387.325374 138.233311 
z
" clip-path="url(#p2797d53d30)" style="fill: #d8d8d8; stroke: #000000; stroke-width: 0.45; stroke-linejoin: miter"/>
   </g>
   <g id="matplotlib.axis_5">
    <g id="xtick_9">
     <g id="line2d_22">
      <g>
       <use xlink:href="#mc4ef6bea98" x="387.325374" y="143.857454" style="stroke: #000000; stroke-width: 0.8"/>
      </g>
     </g>
     <g id="text_29">
      <text style="font-size: 7px; font-family: 'Arial', 'Helvetica', 'DejaVu Sans', sans-serif; text-anchor: middle" x="387.325374" y="155.953646" transform="rotate(-0 387.325374 155.953646)">0</text>
     </g>
    </g>
    <g id="xtick_10">
     <g id="line2d_23">
      <g>
       <use xlink:href="#mc4ef6bea98" x="409.840732" y="143.857454" style="stroke: #000000; stroke-width: 0.8"/>
      </g>
     </g>
     <g id="text_30">
      <text style="font-size: 7px; font-family: 'Arial', 'Helvetica', 'DejaVu Sans', sans-serif; text-anchor: middle" x="409.840732" y="155.953646" transform="rotate(-0 409.840732 155.953646)">1</text>
     </g>
    </g>
    <g id="xtick_11">
     <g id="line2d_24">
      <g>
       <use xlink:href="#mc4ef6bea98" x="432.356089" y="143.857454" style="stroke: #000000; stroke-width: 0.8"/>
      </g>
     </g>
     <g id="text_31">
      <text style="font-size: 7px; font-family: 'Arial', 'Helvetica', 'DejaVu Sans', sans-serif; text-anchor: middle" x="432.356089" y="155.953646" transform="rotate(-0 432.356089 155.953646)">2</text>
     </g>
    </g>
    <g id="xtick_12">
     <g id="line2d_25">
      <g>
       <use xlink:href="#mc4ef6bea98" x="454.871446" y="143.857454" style="stroke: #000000; stroke-width: 0.8"/>
      </g>
     </g>
     <g id="text_32">
      <text style="font-size: 7px; font-family: 'Arial', 'Helvetica', 'DejaVu Sans', sans-serif; text-anchor: middle" x="454.871446" y="155.953646" transform="rotate(-0 454.871446 155.953646)">3</text>
     </g>
    </g>
    <g id="xtick_13">
     <g id="line2d_26">
      <g>
       <use xlink:href="#mc4ef6bea98" x="477.386803" y="143.857454" style="stroke: #000000; stroke-width: 0.8"/>
      </g>
     </g>
     <g id="text_33">
      <text style="font-size: 7px; font-family: 'Arial', 'Helvetica', 'DejaVu Sans', sans-serif; text-anchor: middle" x="477.386803" y="155.953646" transform="rotate(-0 477.386803 155.953646)">4</text>
     </g>
    </g>
    <g id="text_34">
     <text style="font-size: 7px; font-family: 'Arial', 'Helvetica', 'DejaVu Sans', sans-serif; text-anchor: middle" x="441.787064" y="166.522982" transform="rotate(-0 441.787064 166.522982)">Envelope peak prominence</text>
    </g>
   </g>
   <g id="matplotlib.axis_6">
    <g id="ytick_11">
     <g id="line2d_27">
      <g>
       <use xlink:href="#m649e26307f" x="387.325374" y="38.729233" style="stroke: #000000; stroke-width: 0.8"/>
      </g>
     </g>
     <g id="text_35">
      <text style="font-size: 7px; font-family: 'Arial', 'Helvetica', 'DejaVu Sans', sans-serif; text-anchor: end" x="380.325374" y="41.277329" transform="rotate(-0 380.325374 41.277329)">200-1200</text>
     </g>
    </g>
    <g id="ytick_12">
     <g id="line2d_28">
      <g>
       <use xlink:href="#m649e26307f" x="387.325374" y="81.991876" style="stroke: #000000; stroke-width: 0.8"/>
      </g>
     </g>
     <g id="text_36">
      <text style="font-size: 7px; font-family: 'Arial', 'Helvetica', 'DejaVu Sans', sans-serif; text-anchor: end" x="380.325374" y="84.539971" transform="rotate(-0 380.325374 84.539971)">600-1600</text>
     </g>
    </g>
    <g id="ytick_13">
     <g id="line2d_29">
      <g>
       <use xlink:href="#m649e26307f" x="387.325374" y="125.254518" style="stroke: #000000; stroke-width: 0.8"/>
      </g>
     </g>
     <g id="text_37">
      <text style="font-size: 7px; font-family: 'Arial', 'Helvetica', 'DejaVu Sans', sans-serif; text-anchor: end" x="380.325374" y="127.802614" transform="rotate(-0 380.325374 127.802614)">1000-2000</text>
     </g>
    </g>
   </g>
   <g id="patch_15">
    <path d="M 387.325374 143.857454 
L 387.325374 20.126297 
" style="fill: none; stroke: #000000; stroke-width: 0.75; stroke-linejoin: miter; stroke-linecap: square"/>
   </g>
   <g id="patch_16">
    <path d="M 387.325374 143.857454 
L 496.248753 143.857454 
" style="fill: none; stroke: #000000; stroke-width: 0.75; stroke-linejoin: miter; stroke-linecap: square"/>
   </g>
   <g id="text_38">
    <text style="font-size: 5.7px; font-family: 'Arial', 'Helvetica', 'DejaVu Sans', sans-serif; text-anchor: start; fill: #b64342" x="492.863154" y="33.282253" transform="rotate(-0 492.863154 33.282253)">reject</text>
   </g>
   <g id="text_39">
    <text style="font-size: 5.7px; font-family: 'Arial', 'Helvetica', 'DejaVu Sans', sans-serif; text-anchor: start; fill: #b64342" x="448.419709" y="76.544895" transform="rotate(-0 448.419709 76.544895)">reject</text>
   </g>
   <g id="text_40">
    <text style="font-weight: 700; font-size: 8.5px; font-family: 'Arial', 'Helvetica', 'DejaVu Sans', sans-serif; text-anchor: start" x="374.254569" y="13.388232" transform="rotate(-0 374.254569 13.388232)">c</text>
   </g>
   <g id="text_41">
    <text style="font-size: 7.6px; font-family: 'Arial', 'Helvetica', 'DejaVu Sans', sans-serif; text-anchor: middle" x="441.787064" y="14.126297" transform="rotate(-0 441.787064 14.126297)">Gate report values</text>
   </g>
   <g id="legend_1">
    <g id="patch_17">
     <path d="M 442.556159 129.073572 
L 454.156159 129.073572 
L 454.156159 125.013572 
L 442.556159 125.013572 
z
" style="fill: #b64342; stroke: #000000; stroke-width: 0.45; stroke-linejoin: miter"/>
    </g>
    <g id="text_42">
     <text style="font-size: 5.8px; font-family: 'Arial', 'Helvetica', 'DejaVu Sans', sans-serif; text-anchor: start" x="458.796159" y="129.073572" transform="rotate(-0 458.796159 129.073572)">Observed</text>
    </g>
    <g id="patch_18">
     <path d="M 442.556159 137.416736 
L 454.156159 137.416736 
L 454.156159 133.356736 
L 442.556159 133.356736 
z
" style="fill: #d8d8d8; stroke: #000000; stroke-width: 0.45; stroke-linejoin: miter"/>
    </g>
    <g id="text_43">
     <text style="font-size: 5.8px; font-family: 'Arial', 'Helvetica', 'DejaVu Sans', sans-serif; text-anchor: start" x="458.796159" y="137.416736" transform="rotate(-0 458.796159 137.416736)">Healthy max</text>
    </g>
   </g>
  </g>
 </g>
 <defs>
  <clipPath id="p73b507b502">
   <rect x="38.587773" y="20.126297" width="119.815716" height="123.731157"/>
  </clipPath>
  <clipPath id="p45698b79c2">
   <rect x="210.23349" y="20.126297" width="125.261885" height="123.731157"/>
  </clipPath>
  <clipPath id="p2797d53d30">
   <rect x="387.325374" y="20.126297" width="108.923378" height="123.731157"/>
  </clipPath>
 </defs>
</svg>
