<?xml version="1.0" encoding="utf-8" standalone="no"?>
<!DOCTYPE svg PUBLIC "-//W3C//DTD SVG 1.1//EN"
  "http://www.w3.org/Graphics/SVG/1.1/DTD/svg11.dtd">
<svg xmlns:xlink="http://www.w3.org/1999/xlink" width="518.740157pt" height="221.102362pt" viewBox="0 0 518.740157 221.102362" xmlns="http://www.w3.org/2000/svg" version="1.1">
 <metadata>
  <rdf:RDF xmlns:dc="http://purl.org/dc/elements/1.1/" xmlns:cc="http://creativecommons.org/ns#" xmlns:rdf="http://www.w3.org/1999/02/22-rdf-syntax-ns#">
   <cc:Work>
    <dc:type rdf:resource="http://purl.org/dc/dcmitype/StillImage"/>
    <dc:format>image/svg+xml</dc:format>
    <dc:creator>
     <cc:Agent>
      <dc:title>Matplotlib v3.11.0, https://matplotlib.org/</dc:title>
     </cc:Agent>
    </dc:creator>
   </cc:Work>
  </rdf:RDF>
 </metadata>
 <defs>
  <style type="text/css">*{stroke-linejoin: round; stroke-linecap: butt}</style>
 </defs>
 <g id="figure_1">
  <g id="patch_1">
   <path d="M 0 221.102362
L 518.740157 221.102362
L 518.740157 0
L 0 0
z
" style="fill: #ffffff"/>
  </g>
  <g id="axes_1">
   <g id="patch_2">
    <path d="M 44.146017 91.837195
L 152.499398 91.837195
L 152.499398 14.096431
L 44.146017 14.096431
z
" style="fill: #ffffff"/>
   </g>
   <g id="line2d_1">
    <path d="M 44.146017 52.966813
L 152.499398 52.966813
" clip-path="url(#pd64bbe917b)" style="fill: none; stroke: #d0d0d0; stroke-width: 0.45; stroke-linecap: square"/>
   </g>
   <g id="matplotlib.axis_1">
    <g id="xtick_1">
     <g id="line2d_2">
      <defs>
       <path id="m0ce1e1fcdd" d="M 0 0
L 0 2.5
" style="stroke: #000000; stroke-width: 0.7"/>
      </defs>
      <g>
       <use xlink:href="#m0ce1e1fcdd" x="44.146017" y="91.837195" style="stroke: #000000; stroke-width: 0.7"/>
      </g>
     </g>
     <g id="text_1">
      <text style="font-size: 5.7px; font-family: 'Arial', 'Helvetica', 'DejaVu Sans', sans-serif; text-anchor: middle" x="44.146017" y="101.986951" transform="rotate(-0 44.146017 101.986951)">0</text>
     </g>
    </g>
    <g id="xtick_2">
     <g id="line2d_3">
      <g>
       <use xlink:href="#m0ce1e1fcdd" x="65.816693" y="91.837195" style="stroke: #000000; stroke-width: 0.7"/>
      </g>
     </g>
     <g id="text_2">
      <text style="font-size: 5.7px; font-family: 'Arial', 'Helvetica', 'DejaVu Sans', sans-serif; text-anchor: middle" x="65.816693" y="101.986951" transform="rotate(-0 65.816693 101.986951)">10</text>
     </g>
    </g>
    <g id="xtick_3">
     <g id="line2d_4">
      <g>
       <use xlink:href="#m0ce1e1fcdd" x="87.48737" y="91.837195" style="stroke: #000000; stroke-width: 0.7"/>
      </g>
     </g>
     <g id="text_3">
      <text style="font-size: 5.7px; font-family: 'Arial', 'Helvetica', 'DejaVu Sans', sans-serif; text-anchor: middle" x="87.48737" y="101.986951" transform="rotate(-0 87.48737 101.986951)">20</text>
     </g>
    </g>
    <g id="xtick_4">
     <g id="line2d_5">
      <g>
       <use xlink:href="#m0ce1e1fcdd" x="109.158046" y="91.837195" style="stroke: #000000; stroke-width: 0.7"/>
      </g>
     </g>
     <g id="text_4">
      <text style="font-size: 5.7px; font-family: 'Arial', 'Helvetica', 'DejaVu Sans', sans-serif; text-anchor: middle" x="109.158046" y="101.986951" transform="rotate(-0 109.158046 101.986951)">30</text>
     </g>
    </g>
    <g id="xtick_5">
     <g id="line2d_6">
      <g>
       <use xlink:href="#m0ce1e1fcdd" x="130.828722" y="91.837195" style="stroke: #000000; stroke-width: 0.7"/>
      </g>
     </g>
     <g id="text_5">
      <text style="font-size: 5.7px; font-family: 'Arial', 'Helvetica', 'DejaVu Sans', sans-serif; text-anchor: middle" x="130.828722" y="101.986951" transform="rotate(-0 130.828722 101.986951)">40</text>
     </g>
    </g>
    <g id="xtick_6">
     <g id="line2d_7">
      <g>
       <use xlink:href="#m0ce1e1fcdd" x="152.499398" y="91.837195" style="stroke: #000000; stroke-width: 0.7"/>
      </g>
     </g>
     <g id="text_6">
      <text style="font-size: 5.7px; font-family: 'Arial', 'Helvetica', 'DejaVu Sans', sans-serif; text-anchor: middle" x="152.499398" y="101.986951" transform="rotate(-0 152.499398 101.986951)">50</text>
     </g>
    </g>
    <g id="text_7">
     <text style="font-size: 6.3px; font-family: 'Arial', 'Helvetica', 'DejaVu Sans', sans-serif; text-anchor: middle" x="98.322708" y="111.773084" transform="rotate(-0 98.322708 111.773084)">Time (ms)</text>
    </g>
   </g>
   <g id="matplotlib.axis_2">
    <g id="ytick_1">
     <g id="line2d_8">
      <defs>
       <path id="m1eed7ec5df" d="M 0 0
L -2.5 0
" style="stroke: #000000; stroke-width: 0.7"/>
      </defs>
      <g>
       <use xlink:href="#m1eed7ec5df" x="44.146017" y="80.39743" style="stroke: #000000; stroke-width: 0.7"/>
      </g>
     </g>
     <g id="text_8">
      <text style="font-size: 5.7px; font-family: 'Arial', 'Helvetica', 'DejaVu Sans', sans-serif; text-anchor: end" x="38.146017" y="82.472307" transform="rotate(-0 38.146017 82.472307)">−0.4</text>
     </g>
    </g>
    <g id="ytick_2">
     <g id="line2d_9">
      <g>
       <use xlink:href="#m1eed7ec5df" x="44.146017" y="66.682121" style="stroke: #000000; stroke-width: 0.7"/>
      </g>
     </g>
     <g id="text_9">
      <text style="font-size: 5.7px; font-family: 'Arial', 'Helvetica', 'DejaVu Sans', sans-serif; text-anchor: end" x="38.146017" y="68.756999" transform="rotate(-0 38.146017 68.756999)">−0.2</text>
     </g>
    </g>
    <g id="ytick_3">
     <g id="line2d_10">
      <g>
       <use xlink:href="#m1eed7ec5df" x="44.146017" y="52.966813" style="stroke: #000000; stroke-width: 0.7"/>
      </g>
     </g>
     <g id="text_10">
      <text style="font-size: 5.7px; font-family: 'Arial', 'Helvetica', 'DejaVu Sans', sans-serif; text-anchor: end" x="38.146017" y="55.041691" transform="rotate(-0 38.146017 55.041691)">0.0</text>
     </g>
    </g>
    <g id="ytick_4">
     <g id="line2d_11">
      <g>
       <use xlink:href="#m1eed7ec5df" x="44.146017" y="39.251505" style="stroke: #000000; stroke-width: 0.7"/>
      </g>
     </g>
     <g id="text_11">
      <text style="font-size: 5.7px; font-family: 'Arial', 'Helvetica', 'DejaVu Sans', sans-serif; text-anchor: end" x="38.146017" y="41.326383" transform="rotate(-0 38.146017 41.326383)">0.2</text>
     </g>
    </g>
    <g id="ytick_5">
     <g id="line2d_12">
      <g>
       <use xlink:href="#m1eed7ec5df" x="44.146017" y="25.536197" style="stroke: #000000; stroke-width: 0.7"/>
      </g>
     </g>
     <g id="text_12">
      <text style="font-size: 5.7px; font-family: 'Arial', 'Helvetica', 'DejaVu Sans', sans-serif; text-anchor: end" x="38.146017" y="27.611075" transform="rotate(-0 38.146017 27.611075)">0.4</text>
     </g>
    </g>
    <g id="text_13">
     <text style="font-size: 6.3px; font-family: 'Arial', 'Helvetica', 'DejaVu Sans', sans-serif" transform="translate(14.238928 63.64679) rotate(-90)">Healthy</text>
     <text style="font-size: 6.3px; font-family: 'Arial', 'Helvetica', 'DejaVu Sans', sans-serif" transform="translate(21.095839 66.973485) rotate(-90)">Amplitude</text>
    </g>
   </g>
   <g id="line2d_13">
    <path d="M 44.146017 20.702796
L 44.416901 70.738321
L 44.687784 48.367375
L 44.958668 45.142101
L 45.229551 65.084936
L 45.500435 54.678517
L 46.042202 54.02181
L 46.313085 54.408403
L 46.583968 51.490781
L 46.854852 54.197486
L 47.125735 49.293321
L 47.396619 57.562292
L 47.667502 54.0729
L 47.938386 55.610675
L 48.209269 47.758108
L 48.480153 61.779932
L 48.751036 58.13633
L 49.021919 65.662512
L 49.292803 51.929876
L 49.563686 69.974396
L 49.83457 50.645412
L 50.105453 45.361803
L 50.376337 58.249416
L 50.64722 51.480685
L 50.918104 66.502143
L 51.188987 47.739876
L 51.459871 47.546088
L 51.730754 57.131615
L 52.001637 46.516153
L 52.272521 59.78814
L 52.814288 64.09523
L 53.085171 54.228601
L 53.356055 54.925541
L 53.626938 68.016143
L 53.897822 62.419964
L 54.168705 61.055448
L 54.439589 54.330496
L 54.710472 55.694389
L 54.981355 46.712005
L 55.252239 46.148488
L 55.523122 59.588247
L 55.794006 57.110867
L 56.064889 62.92169
L 56.335773 50.196126
L 56.606656 54.270494
L 56.87754 50.669562
L 57.148423 50.797448
L 57.419306 47.862792
L 57.69019 70.897032
L 57.961073 50.824383
L 58.231957 16.975719
L 58.50284 77.922508
L 59.044607 63.888289
L 59.315491 38.385878
L 59.586374 48.920941
L 59.857258 43.726982
L 60.128141 45.7964
L 60.399024 64.831627
L 60.669908 42.44512
L 60.940791 59.824881
L 61.211675 59.602302
L 61.482558 64.422242
L 61.753442 45.868794
L 62.024325 57.745933
L 62.295209 39.623231
L 62.566092 53.225332
L 62.836976 52.866658
L 63.107859 47.040318
L 63.378742 53.714297
L 63.649626 52.52577
L 63.920509 54.377589
L 64.191393 57.790472
L 64.462276 52.174999
L 64.73316 68.22571
L 65.274927 50.484341
L 65.54581 49.916023
L 65.816693 57.777057
L 66.087577 52.129827
L 66.35846 57.299369
L 66.629344 51.099133
L 67.171111 55.928104
L 67.441994 53.085513
L 67.712878 52.430438
L 67.983761 52.210919
L 68.254645 53.965771
L 68.525528 54.795014
L 68.796411 54.572067
L 69.067295 53.504819
L 69.338178 51.072016
L 69.609062 53.675778
L 69.879945 51.291636
L 70.150829 57.562713
L 70.421712 53.128436
L 70.692596 54.512438
L 70.963479 54.953353
L 71.234363 51.976611
L 71.505246 56.119469
L 71.776129 54.258411
L 72.047013 53.869362
L 72.317896 58.635589
L 72.58878 55.372278
L 72.859663 53.529569
L 73.130547 48.77726
L 73.40143 51.115696
L 73.672314 51.690021
L 73.943197 56.551708
L 74.21408 59.228597
L 74.484964 51.822679
L 74.755847 52.997175
L 75.026731 50.135819
L 75.297614 55.144
L 75.568498 54.471368
L 75.839381 54.13628
L 76.110265 54.901468
L 76.381148 47.462936
L 76.652032 54.040087
L 77.193798 56.976598
L 77.464682 56.435828
L 77.735565 55.047451
L 78.277332 56.670167
L 78.548216 58.960198
L 78.819099 55.738256
L 79.089983 55.556032
L 79.360866 55.764234
L 79.63175 60.436651
L 79.902633 47.727147
L 80.173516 52.973118
L 80.4444 47.473051
L 80.715283 54.205158
L 80.986167 58.135654
L 81.25705 38.936375
L 81.527934 71.019438
L 81.798817 45.07286
L 82.069701 49.513673
L 82.340584 51.505858
L 82.611467 44.970961
L 82.882351 55.932172
L 83.153234 54.921043
L 83.424118 56.440288
L 83.695001 55.136403
L 83.965885 55.841203
L 84.236768 58.474967
L 84.507652 51.788886
L 84.778535 48.685058
L 85.049419 53.316171
L 85.320302 63.828951
L 85.591185 64.285004
L 85.862069 35.06451
L 86.132952 39.331298
L 86.403836 51.855296
L 86.674719 51.087078
L 86.945603 61.480014
L 87.216486 45.592785
L 87.48737 57.245592
L 87.758253 56.627754
L 88.029137 57.482174
L 88.30002 53.608906
L 88.570903 53.4598
L 88.841787 50.916544
L 89.11267 55.722144
L 89.383554 51.6925
L 89.654437 51.8851
L 89.925321 57.93308
L 90.196204 45.225267
L 90.467088 57.205149
L 90.737971 55.2393
L 91.279738 47.53578
L 91.550621 51.200499
L 91.821505 56.787707
L 92.092388 55.775365
L 92.363272 53.371432
L 92.634155 55.737008
L 92.905039 54.68125
L 93.175922 60.77772
L 93.446806 54.853592
L 93.717689 62.124461
L 94.259456 48.759159
L 94.530339 57.026781
L 94.801223 47.727863
L 95.072106 57.146052
L 95.34299 58.98797
L 95.613873 64.275137
L 95.884757 37.727263
L 96.426524 65.113738
L 96.697407 54.764063
L 96.96829 53.620701
L 97.239174 37.280517
L 97.510057 52.694343
L 97.780941 50.265925
L 98.051824 46.587725
L 98.322708 75.024388
L 98.593591 40.886449
L 98.864475 56.958892
L 99.135358 33.715093
L 99.406241 60.88016
L 99.677125 62.381425
L 99.948008 54.617526
L 100.218892 51.972503
L 100.489775 45.111083
L 100.760659 48.596793
L 101.031542 80.42295
L 101.302426 72.326393
L 101.573309 52.03978
L 101.844193 54.782436
L 102.115076 60.502286
L 102.385959 61.714075
L 102.656843 46.824129
L 102.927726 39.223493
L 103.19861 62.134786
L 103.469493 63.053306
L 103.740377 54.969266
L 104.01126 38.853719
L 104.282144 39.243804
L 104.553027 57.406352
L 105.094794 33.410791
L 105.365677 56.184427
L 105.636561 41.202664
L 105.907444 54.63144
L 106.178328 52.050911
L 106.449211 54.136545
L 106.720095 53.237912
L 106.990978 50.236568
L 107.261862 57.139506
L 107.532745 54.414442
L 107.803628 56.758854
L 108.074512 53.67776
L 108.345395 48.364054
L 108.616279 55.270437
L 108.887162 52.192908
L 109.158046 58.48625
L 109.428929 57.127497
L 109.699813 51.108054
L 109.970696 52.662846
L 110.24158 49.608431
L 110.512463 54.627419
L 110.783346 55.237899
L 111.05423 54.018129
L 111.325113 52.140893
L 111.595997 51.404279
L 111.86688 55.095097
L 112.137764 54.920028
L 112.408647 55.324268
L 112.679531 54.21421
L 112.950414 51.656344
L 113.221298 55.873954
L 113.492181 49.243232
L 113.763064 54.726793
L 114.033948 52.60868
L 114.304831 56.157357
L 114.575715 56.759031
L 114.846598 52.797632
L 115.117482 56.421546
L 115.388365 51.557431
L 115.659249 52.850074
L 116.201015 56.581675
L 116.742782 51.394666
L 117.013666 51.749149
L 117.284549 51.700956
L 117.555433 56.71804
L 117.826316 54.841358
L 118.0972 52.162807
L 118.368083 56.549099
L 118.638967 50.962133
L 119.180733 55.86892
L 119.451617 56.709587
L 119.7225 58.590585
L 119.993384 51.572581
L 120.264267 58.16137
L 120.535151 51.283188
L 120.806034 56.363048
L 121.076918 56.846546
L 121.347801 49.78018
L 121.618685 51.995965
L 121.889568 52.92182
L 122.160451 60.089512
L 122.702218 55.110775
L 123.243985 59.45102
L 123.514869 58.929431
L 123.785752 63.64253
L 124.327519 53.901828
L 124.598402 52.797115
L 124.869286 58.320751
L 125.140169 57.964833
L 125.411053 55.051729
L 125.681936 55.436144
L 125.95282 59.789802
L 126.223703 57.120181
L 126.76547 45.689732
L 127.036354 58.308442
L 127.57812 63.383837
L 128.119887 58.142209
L 128.390771 58.833366
L 128.661654 39.535326
L 128.932538 62.00727
L 129.203421 64.94693
L 129.474305 47.56598
L 129.745188 50.916808
L 130.016072 49.271025
L 130.286955 51.179971
L 130.557838 57.507359
L 130.828722 53.642996
L 131.099605 56.09831
L 131.370489 45.210042
L 131.641372 56.952414
L 131.912256 54.911213
L 132.183139 65.252174
L 132.454023 63.788103
L 132.724906 58.090662
L 132.995789 61.492232
L 133.266673 54.943274
L 133.537556 41.611681
L 133.80844 62.707368
L 134.079323 62.937423
L 134.350207 52.111558
L 134.62109 57.453688
L 134.891974 55.038303
L 135.162857 64.818792
L 135.433741 64.983638
L 135.704624 40.463177
L 135.975507 35.167641
L 136.246391 58.205463
L 136.517274 67.216156
L 136.788158 57.957533
L 137.059041 54.693185
L 137.329925 53.725359
L 137.600808 45.308962
L 137.871692 49.316676
L 138.142575 61.434471
L 138.413459 57.013549
L 138.684342 65.542732
L 138.955225 44.20956
L 139.226109 42.452777
L 139.767876 69.2173
L 140.038759 65.410964
L 140.309643 48.214322
L 140.580526 42.528612
L 140.85141 61.655461
L 141.122293 59.94527
L 141.393176 43.819727
L 141.66406 56.019949
L 141.934943 40.168557
L 142.205827 57.504468
L 142.747594 55.51788
L 143.018477 51.143285
L 143.289361 62.071117
L 143.560244 63.496271
L 143.831128 62.94842
L 144.102011 60.534559
L 144.372894 63.013835
L 144.643778 44.930354
L 144.914661 79.696564
L 145.185545 58.429618
L 145.456428 47.3203
L 145.727312 58.092657
L 145.998195 62.522537
L 146.539962 50.610752
L 146.810846 50.30343
L 147.081729 63.320164
L 147.352612 45.698264
L 147.623496 58.127579
L 148.165263 49.55816
L 148.436146 55.202152
L 148.70703 52.017274
L 148.977913 53.128949
L 149.248797 55.898627
L 149.51968 48.362256
L 149.790563 54.934551
L 150.061447 51.316815
L 150.33233 57.761247
L 150.603214 58.228574
L 150.874097 52.264707
L 151.144981 56.033539
L 151.415864 49.748087
L 151.686748 54.437539
L 151.957631 57.058997
L 152.228515 54.022541
L 152.228515 54.022541
" clip-path="url(#pd64bbe917b)" style="fill: none; stroke: #2f2f2f; stroke-width: 0.75; stroke-linecap: square"/>
   </g>
   <g id="patch_3">
    <path d="M 44.146017 91.837195
L 44.146017 14.096431
" style="fill: none; stroke: #000000; stroke-width: 0.8; stroke-linejoin: miter; stroke-linecap: square"/>
   </g>
   <g id="patch_4">
    <path d="M 44.146017 91.837195
L 152.499398 91.837195
" style="fill: none; stroke: #000000; stroke-width: 0.8; stroke-linejoin: miter; stroke-linecap: square"/>
   </g>
   <g id="text_14">
    <text style="font-weight: 700; font-size: 8.5px; font-family: 'Arial', 'Helvetica', 'DejaVu Sans', sans-serif; text-anchor: start" x="17.057672" y="9.197983" transform="rotate(-0 17.057672 9.197983)">a</text>
   </g>
   <g id="text_15">
    <text style="font-weight: 700; font-size: 7px; font-family: 'Arial', 'Helvetica', 'DejaVu Sans', sans-serif; text-anchor: middle; fill: #2f2f2f" x="98.322708" y="8.096431" transform="rotate(-0 98.322708 8.096431)">Real</text>
   </g>
  </g>
  <g id="axes_2">
   <g id="patch_5">
    <path d="M 164.169612 91.837195
L 272.522993 91.837195
L 272.522993 14.096431
L 164.169612 14.096431
z
" style="fill: #ffffff"/>
   </g>
   <g id="line2d_14">
    <path d="M 164.169612 52.966813
L 272.522993 52.966813
" clip-path="url(#p7a1a05356b)" style="fill: none; stroke: #d0d0d0; stroke-width: 0.45; stroke-linecap: square"/>
   </g>
   <g id="matplotlib.axis_3">
    <g id="xtick_7">
     <g id="line2d_15">
      <g>
       <use xlink:href="#m0ce1e1fcdd" x="164.169612" y="91.837195" style="stroke: #000000; stroke-width: 0.7"/>
      </g>
     </g>
     <g id="text_16">
      <text style="font-size: 5.7px; font-family: 'Arial', 'Helvetica', 'DejaVu Sans', sans-serif; text-anchor: middle" x="164.169612" y="101.986951" transform="rotate(-0 164.169612 101.986951)">0</text>
     </g>
    </g>
    <g id="xtick_8">
     <g id="line2d_16">
      <g>
       <use xlink:href="#m0ce1e1fcdd" x="185.840289" y="91.837195" style="stroke: #000000; stroke-width: 0.7"/>
      </g>
     </g>
     <g id="text_17">
      <text style="font-size: 5.7px; font-family: 'Arial', 'Helvetica', 'DejaVu Sans', sans-serif; text-anchor: middle" x="185.840289" y="101.986951" transform="rotate(-0 185.840289 101.986951)">10</text>
     </g>
    </g>
    <g id="xtick_9">
     <g id="line2d_17">
      <g>
       <use xlink:href="#m0ce1e1fcdd" x="207.510965" y="91.837195" style="stroke: #000000; stroke-width: 0.7"/>
      </g>
     </g>
     <g id="text_18">
      <text style="font-size: 5.7px; font-family: 'Arial', 'Helvetica', 'DejaVu Sans', sans-serif; text-anchor: middle" x="207.510965" y="101.986951" transform="rotate(-0 207.510965 101.986951)">20</text>
     </g>
    </g>
    <g id="xtick_10">
     <g id="line2d_18">
      <g>
       <use xlink:href="#m0ce1e1fcdd" x="229.181641" y="91.837195" style="stroke: #000000; stroke-width: 0.7"/>
      </g>
     </g>
     <g id="text_19">
      <text style="font-size: 5.7px; font-family: 'Arial', 'Helvetica', 'DejaVu Sans', sans-serif; text-anchor: middle" x="229.181641" y="101.986951" transform="rotate(-0 229.181641 101.986951)">30</text>
     </g>
    </g>
    <g id="xtick_11">
     <g id="line2d_19">
      <g>
       <use xlink:href="#m0ce1e1fcdd" x="250.852317" y="91.837195" style="stroke: #000000; stroke-width: 0.7"/>
      </g>
     </g>
     <g id="text_20">
      <text style="font-size: 5.7px; font-family: 'Arial', 'Helvetica', 'DejaVu Sans', sans-serif; text-anchor: middle" x="250.852317" y="101.986951" transform="rotate(-0 250.852317 101.986951)">40</text>
     </g>
    </g>
    <g id="xtick_12">
     <g id="line2d_20">
      <g>
       <use xlink:href="#m0ce1e1fcdd" x="272.522993" y="91.837195" style="stroke: #000000; stroke-width: 0.7"/>
      </g>
     </g>
     <g id="text_21">
      <text style="font-size: 5.7px; font-family: 'Arial', 'Helvetica', 'DejaVu Sans', sans-serif; text-anchor: middle" x="272.522993" y="101.986951" transform="rotate(-0 272.522993 101.986951)">50</text>
     </g>
    </g>
    <g id="text_22">
     <text style="font-size: 6.3px; font-family: 'Arial', 'Helvetica', 'DejaVu Sans', sans-serif; text-anchor: middle" x="218.346303" y="111.773084" transform="rotate(-0 218.346303 111.773084)">Time (ms)</text>
    </g>
   </g>
   <g id="matplotlib.axis_4">
    <g id="ytick_6">
     <g id="line2d_21">
      <g>
       <use xlink:href="#m1eed7ec5df" x="164.169612" y="80.39743" style="stroke: #000000; stroke-width: 0.7"/>
      </g>
     </g>
    </g>
    <g id="ytick_7">
     <g id="line2d_22">
      <g>
       <use xlink:href="#m1eed7ec5df" x="164.169612" y="66.682121" style="stroke: #000000; stroke-width: 0.7"/>
      </g>
     </g>
    </g>
    <g id="ytick_8">
     <g id="line2d_23">
      <g>
       <use xlink:href="#m1eed7ec5df" x="164.169612" y="52.966813" style="stroke: #000000; stroke-width: 0.7"/>
      </g>
     </g>
    </g>
    <g id="ytick_9">
     <g id="line2d_24">
      <g>
       <use xlink:href="#m1eed7ec5df" x="164.169612" y="39.251505" style="stroke: #000000; stroke-width: 0.7"/>
      </g>
     </g>
    </g>
    <g id="ytick_10">
     <g id="line2d_25">
      <g>
       <use xlink:href="#m1eed7ec5df" x="164.169612" y="25.536197" style="stroke: #000000; stroke-width: 0.7"/>
      </g>
     </g>
    </g>
   </g>
   <g id="line2d_26">
    <path d="M 164.169612 56.000341
L 164.711379 48.944963
L 164.982263 50.116174
L 165.253146 50.254883
L 165.52403 51.953517
L 165.794913 51.761878
L 166.065797 50.509091
L 166.33668 53.031293
L 166.607563 50.94167
L 166.878447 52.435944
L 167.14933 54.591523
L 167.420214 54.267789
L 167.691097 54.436474
L 167.961981 46.946096
L 168.232864 54.883417
L 168.503748 51.936725
L 168.774631 54.909535
L 169.045515 48.619462
L 169.316398 51.698525
L 169.587281 51.673727
L 169.858165 58.243631
L 170.129048 61.035945
L 170.399932 52.944502
L 170.941699 48.910958
L 171.212582 57.537079
L 171.483466 53.042666
L 171.754349 52.962198
L 172.025232 53.416828
L 172.296116 51.638647
L 172.566999 55.717178
L 172.837883 55.206283
L 173.108766 55.478138
L 173.650533 51.63105
L 173.921417 51.363887
L 174.1923 51.460223
L 174.463184 55.629626
L 174.734067 56.209098
L 175.00495 49.189967
L 175.817601 58.409008
L 176.088484 49.498082
L 176.359368 54.726155
L 176.630251 53.770899
L 176.901135 58.712147
L 177.172018 56.871002
L 177.442902 51.912948
L 177.713785 51.367803
L 177.984668 49.158553
L 178.255552 55.651622
L 178.526435 56.259048
L 178.797319 54.725866
L 179.068202 58.425463
L 179.339086 51.157404
L 179.609969 52.247581
L 179.880853 54.35463
L 180.151736 55.444422
L 180.422619 58.804369
L 180.693503 50.038656
L 180.964386 58.605135
L 181.23527 52.443531
L 181.506153 56.500931
L 181.777037 49.455981
L 182.04792 54.97824
L 182.318804 53.120215
L 182.589687 53.685239
L 182.860571 50.89002
L 183.131454 51.901168
L 183.402337 56.150021
L 183.673221 48.542071
L 183.944104 53.686471
L 184.214988 49.545901
L 184.485871 58.584424
L 184.756755 53.546037
L 185.027638 58.481166
L 185.569405 50.510598
L 185.840289 52.008773
L 186.111172 51.866635
L 186.382055 54.547287
L 186.652939 49.189694
L 186.923822 52.908294
L 187.194706 48.58688
L 187.465589 53.274433
L 188.007356 58.316011
L 188.27824 49.865236
L 188.549123 52.416832
L 188.820006 53.163302
L 189.09089 57.320129
L 189.361773 52.112592
L 189.632657 56.392801
L 189.90354 50.035464
L 190.174424 51.750766
L 190.445307 51.643479
L 190.716191 57.045855
L 191.257958 47.397835
L 191.528841 53.229691
L 191.799724 53.331163
L 192.070608 53.283997
L 192.341491 48.99924
L 192.612375 53.747866
L 192.883258 55.824262
L 193.154142 54.371725
L 193.425025 49.434117
L 193.695909 54.369122
L 193.966792 55.854114
L 194.237676 59.185774
L 194.508559 49.306063
L 194.779442 48.965445
L 195.050326 55.027833
L 195.321209 53.399389
L 195.592093 52.694873
L 195.862976 46.582283
L 196.404743 55.809008
L 196.675627 52.848999
L 197.217393 53.185312
L 197.488277 57.505187
L 197.75916 58.58087
L 198.030044 51.507477
L 198.300927 51.124865
L 198.571811 49.541257
L 198.842694 52.075664
L 199.113578 51.745067
L 199.384461 49.355807
L 199.926228 49.728297
L 200.197111 54.443062
L 200.467995 55.68098
L 200.738878 54.994791
L 201.009762 53.240473
L 201.280645 53.56314
L 201.551529 53.352473
L 201.822412 52.684804
L 202.093296 53.898583
L 202.364179 54.221552
L 202.635063 50.105921
L 202.905946 47.866125
L 203.176829 50.529929
L 203.447713 54.792533
L 203.718596 54.431942
L 203.98948 53.336298
L 204.260363 54.289697
L 204.531247 54.273717
L 204.80213 53.094714
L 205.343897 55.648926
L 205.61478 54.479999
L 205.885664 55.490979
L 206.156547 52.098936
L 206.427431 50.547315
L 206.698314 47.641515
L 207.240081 56.057949
L 207.510965 58.51602
L 207.781848 52.392103
L 208.052732 53.078914
L 208.323615 46.856117
L 208.594498 53.98167
L 208.865382 51.437434
L 209.136265 55.994637
L 209.407149 56.586658
L 209.678032 55.877096
L 210.490683 50.02883
L 210.761566 52.933393
L 211.03245 53.986592
L 211.303333 56.251819
L 211.574216 52.529613
L 211.8451 52.263477
L 212.115983 54.717097
L 212.65775 50.473012
L 213.199517 56.43457
L 213.470401 51.571011
L 213.741284 54.232986
L 214.012167 51.015592
L 214.283051 53.458107
L 214.553934 50.575227
L 214.824818 55.877107
L 215.095701 57.856151
L 215.366585 49.24479
L 215.637468 54.488779
L 215.908352 50.861717
L 216.179235 52.930177
L 216.450119 54.027407
L 216.721002 50.123164
L 216.991885 51.011056
L 217.262769 37.718843
L 217.533652 64.09464
L 217.804536 55.826304
L 218.075419 38.914814
L 218.346303 57.97994
L 218.88807 50.527217
L 219.158953 57.629779
L 219.429837 51.926755
L 219.70072 52.227792
L 219.971603 57.228194
L 220.242487 55.273574
L 220.51337 49.832528
L 220.784254 56.800214
L 221.055137 51.73278
L 221.326021 51.878923
L 221.596904 57.711878
L 221.867788 49.795541
L 222.138671 52.212923
L 222.680438 53.14769
L 222.951321 55.851433
L 223.222205 55.09059
L 223.493088 50.571839
L 223.763972 48.475653
L 224.034855 50.966341
L 224.305739 47.99745
L 224.576622 57.593444
L 224.847506 53.47312
L 225.118389 51.640232
L 225.389272 48.740205
L 225.931039 52.426227
L 226.201923 57.012219
L 226.472806 57.922472
L 226.74369 52.269127
L 227.014573 49.994463
L 227.285457 50.817118
L 227.55634 55.224766
L 227.827224 55.378213
L 228.098107 54.488431
L 228.36899 49.582118
L 228.639874 59.216945
L 229.181641 48.858567
L 229.723408 53.894745
L 229.994291 49.981929
L 230.265175 60.196177
L 230.536058 57.00437
L 230.806941 48.523827
L 231.077825 55.011484
L 231.348708 51.833878
L 231.890475 50.13869
L 232.161359 49.758725
L 232.432242 55.139805
L 232.703126 55.168034
L 232.974009 51.937561
L 233.244893 51.888232
L 233.515776 56.801917
L 233.786659 58.136085
L 234.328426 54.699638
L 234.59931 47.346786
L 234.870193 55.127491
L 235.41196 51.329431
L 235.682844 54.858942
L 235.953727 55.706112
L 236.224611 54.868571
L 236.495494 51.710772
L 236.766377 61.341935
L 237.308144 49.26469
L 237.579028 49.869422
L 237.849911 46.189397
L 238.120795 54.749122
L 238.391678 50.564982
L 238.662562 58.408274
L 238.933445 49.443469
L 239.475212 57.450416
L 240.016979 57.283986
L 240.287862 52.234808
L 240.558746 53.450518
L 240.829629 46.45034
L 241.100513 54.485302
L 241.371396 57.410324
L 241.64228 51.886411
L 241.913163 51.190376
L 242.184046 53.562778
L 242.45493 57.374872
L 242.725813 56.59716
L 242.996697 55.359851
L 243.26758 56.881249
L 243.538464 51.790548
L 243.809347 52.487911
L 244.080231 52.515744
L 244.351114 47.715079
L 244.621998 51.399243
L 244.892881 53.036607
L 245.163764 60.469941
L 245.434648 54.130798
L 245.705531 54.652954
L 245.976415 53.038534
L 246.247298 54.539247
L 246.518182 52.11418
L 246.789065 48.383665
L 247.059949 51.274436
L 247.330832 48.005263
L 247.601715 53.88521
L 247.872599 52.88117
L 248.143482 57.108515
L 248.414366 57.211908
L 248.956133 49.55723
L 249.227016 48.436981
L 249.768783 53.160371
L 250.31055 48.49451
L 250.581433 53.226259
L 250.852317 50.781929
L 251.1232 62.548989
L 251.394084 52.772483
L 251.664967 53.788588
L 251.935851 55.353017
L 252.206734 53.4214
L 252.477618 57.45302
L 253.019385 49.070854
L 253.290268 51.189669
L 253.832035 52.516094
L 254.102918 51.667673
L 254.373802 53.446154
L 254.644685 50.538895
L 254.915569 52.182918
L 255.186452 55.544609
L 255.457336 54.131579
L 255.728219 57.432833
L 255.999102 49.246915
L 256.269986 51.988072
L 256.540869 50.601414
L 256.811753 55.090316
L 257.082636 54.754805
L 257.35352 53.483123
L 257.624403 55.955145
L 257.895287 49.971884
L 258.16617 52.476543
L 258.437054 53.510858
L 258.707937 52.142653
L 258.97882 55.310663
L 259.249704 48.813825
L 259.520587 53.737032
L 259.791471 52.919002
L 260.062354 54.837574
L 260.333238 51.642017
L 260.604121 52.537005
L 260.875005 51.26123
L 261.145888 54.960057
L 261.416772 50.252744
L 261.687655 56.21929
L 261.958538 53.682863
L 262.229422 55.61566
L 262.771189 50.831543
L 263.042072 53.013447
L 263.312956 53.908564
L 263.583839 56.583017
L 263.854723 53.754358
L 264.125606 47.612397
L 264.396489 55.19656
L 264.667373 50.733963
L 264.938256 56.426878
L 265.20914 55.600341
L 265.480023 55.487437
L 265.750907 51.791714
L 266.02179 46.407549
L 266.292674 51.986563
L 266.563557 51.849216
L 266.834441 52.296527
L 267.105324 53.080691
L 267.376207 50.490407
L 267.647091 49.123977
L 267.917974 53.793699
L 268.188858 50.553116
L 268.459741 56.385352
L 268.730625 44.360469
L 269.001508 54.577932
L 269.272392 57.003504
L 269.543275 45.453253
L 269.814159 58.839345
L 270.085042 54.298901
L 270.355925 44.857637
L 270.626809 60.246757
L 270.897692 52.497279
L 271.168576 52.752901
L 271.439459 52.216459
L 271.710343 56.148622
L 271.981226 52.491027
L 272.25211 54.943445
L 272.25211 54.943445
" clip-path="url(#p7a1a05356b)" style="fill: none; stroke: #0f4d92; stroke-width: 0.75; stroke-linecap: square"/>
   </g>
   <g id="patch_6">
    <path d="M 164.169612 91.837195
L 164.169612 14.096431
" style="fill: none; stroke: #000000; stroke-width: 0.8; stroke-linejoin: miter; stroke-linecap: square"/>
   </g>
   <g id="patch_7">
    <path d="M 164.169612 91.837195
L 272.522993 91.837195
" style="fill: none; stroke: #000000; stroke-width: 0.8; stroke-linejoin: miter; stroke-linecap: square"/>
   </g>
   <g id="text_23">
    <text style="font-weight: 700; font-size: 7px; font-family: 'Arial', 'Helvetica', 'DejaVu Sans', sans-serif; text-anchor: middle; fill: #0f4d92" x="218.346303" y="8.096431" transform="rotate(-0 218.346303 8.096431)">LLM</text>
   </g>
  </g>
  <g id="axes_3">
   <g id="patch_8">
    <path d="M 284.193207 91.837195
L 392.546588 91.837195
L 392.546588 14.096431
L 284.193207 14.096431
z
" style="fill: #ffffff"/>
   </g>
   <g id="line2d_27">
    <path d="M 284.193207 52.966813
L 392.546588 52.966813
" clip-path="url(#p6ac8621947)" style="fill: none; stroke: #d0d0d0; stroke-width: 0.45; stroke-linecap: square"/>
   </g>
   <g id="matplotlib.axis_5">
    <g id="xtick_13">
     <g id="line2d_28">
      <g>
       <use xlink:href="#m0ce1e1fcdd" x="284.193207" y="91.837195" style="stroke: #000000; stroke-width: 0.7"/>
      </g>
     </g>
     <g id="text_24">
      <text style="font-size: 5.7px; font-family: 'Arial', 'Helvetica', 'DejaVu Sans', sans-serif; text-anchor: middle" x="284.193207" y="101.986951" transform="rotate(-0 284.193207 101.986951)">0</text>
     </g>
    </g>
    <g id="xtick_14">
     <g id="line2d_29">
      <g>
       <use xlink:href="#m0ce1e1fcdd" x="305.863884" y="91.837195" style="stroke: #000000; stroke-width: 0.7"/>
      </g>
     </g>
     <g id="text_25">
      <text style="font-size: 5.7px; font-family: 'Arial', 'Helvetica', 'DejaVu Sans', sans-serif; text-anchor: middle" x="305.863884" y="101.986951" transform="rotate(-0 305.863884 101.986951)">10</text>
     </g>
    </g>
    <g id="xtick_15">
     <g id="line2d_30">
      <g>
       <use xlink:href="#m0ce1e1fcdd" x="327.53456" y="91.837195" style="stroke: #000000; stroke-width: 0.7"/>
      </g>
     </g>
     <g id="text_26">
      <text style="font-size: 5.7px; font-family: 'Arial', 'Helvetica', 'DejaVu Sans', sans-serif; text-anchor: middle" x="327.53456" y="101.986951" transform="rotate(-0 327.53456 101.986951)">20</text>
     </g>
    </g>
    <g id="xtick_16">
     <g id="line2d_31">
      <g>
       <use xlink:href="#m0ce1e1fcdd" x="349.205236" y="91.837195" style="stroke: #000000; stroke-width: 0.7"/>
      </g>
     </g>
     <g id="text_27">
      <text style="font-size: 5.7px; font-family: 'Arial', 'Helvetica', 'DejaVu Sans', sans-serif; text-anchor: middle" x="349.205236" y="101.986951" transform="rotate(-0 349.205236 101.986951)">30</text>
     </g>
    </g>
    <g id="xtick_17">
     <g id="line2d_32">
      <g>
       <use xlink:href="#m0ce1e1fcdd" x="370.875912" y="91.837195" style="stroke: #000000; stroke-width: 0.7"/>
      </g>
     </g>
     <g id="text_28">
      <text style="font-size: 5.7px; font-family: 'Arial', 'Helvetica', 'DejaVu Sans', sans-serif; text-anchor: middle" x="370.875912" y="101.986951" transform="rotate(-0 370.875912 101.986951)">40</text>
     </g>
    </g>
    <g id="xtick_18">
     <g id="line2d_33">
      <g>
       <use xlink:href="#m0ce1e1fcdd" x="392.546588" y="91.837195" style="stroke: #000000; stroke-width: 0.7"/>
      </g>
     </g>
     <g id="text_29">
      <text style="font-size: 5.7px; font-family: 'Arial', 'Helvetica', 'DejaVu Sans', sans-serif; text-anchor: middle" x="392.546588" y="101.986951" transform="rotate(-0 392.546588 101.986951)">50</text>
     </g>
    </g>
    <g id="text_30">
     <text style="font-size: 6.3px; font-family: 'Arial', 'Helvetica', 'DejaVu Sans', sans-serif; text-anchor: middle" x="338.369898" y="111.773084" transform="rotate(-0 338.369898 111.773084)">Time (ms)</text>
    </g>
   </g>
   <g id="matplotlib.axis_6">
    <g id="ytick_11">
     <g id="line2d_34">
      <g>
       <use xlink:href="#m1eed7ec5df" x="284.193207" y="80.39743" style="stroke: #000000; stroke-width: 0.7"/>
      </g>
     </g>
    </g>
    <g id="ytick_12">
     <g id="line2d_35">
      <g>
       <use xlink:href="#m1eed7ec5df" x="284.193207" y="66.682121" style="stroke: #000000; stroke-width: 0.7"/>
      </g>
     </g>
    </g>
    <g id="ytick_13">
     <g id="line2d_36">
      <g>
       <use xlink:href="#m1eed7ec5df" x="284.193207" y="52.966813" style="stroke: #000000; stroke-width: 0.7"/>
      </g>
     </g>
    </g>
    <g id="ytick_14">
     <g id="line2d_37">
      <g>
       <use xlink:href="#m1eed7ec5df" x="284.193207" y="39.251505" style="stroke: #000000; stroke-width: 0.7"/>
      </g>
     </g>
    </g>
    <g id="ytick_15">
     <g id="line2d_38">
      <g>
       <use xlink:href="#m1eed7ec5df" x="284.193207" y="25.536197" style="stroke: #000000; stroke-width: 0.7"/>
      </g>
     </g>
    </g>
   </g>
   <g id="line2d_39">
    <path d="M 284.193207 57.108727
L 284.464091 61.896737
L 284.734974 52.617244
L 285.005858 55.772956
L 285.276741 49.528044
L 285.547625 47.707569
L 285.818508 56.544273
L 286.089392 54.90425
L 286.360275 50.707342
L 286.631158 49.07828
L 286.902042 62.047429
L 287.172925 51.02016
L 287.443809 51.615511
L 287.714692 56.001043
L 287.985576 53.085018
L 288.256459 47.166048
L 288.527343 63.282132
L 288.798226 45.79827
L 289.06911 50.958473
L 289.339993 62.53751
L 289.88176 45.25096
L 290.152643 57.157149
L 290.423527 46.924929
L 290.69441 56.62457
L 290.965294 56.265074
L 291.236177 43.215114
L 291.507061 48.769474
L 291.777944 49.918687
L 292.048828 56.205309
L 292.319711 51.433093
L 292.590594 61.046681
L 292.861478 52.514802
L 293.132361 52.51015
L 293.403245 49.545714
L 293.945012 60.711151
L 294.215895 51.263257
L 294.486779 46.506292
L 294.757662 54.098395
L 295.028545 53.800155
L 295.299429 57.67609
L 295.570312 45.616402
L 295.841196 50.046723
L 296.112079 57.397813
L 296.382963 49.307825
L 296.653846 63.74223
L 296.92473 50.472609
L 297.195613 49.868405
L 297.466497 54.480949
L 297.73738 48.784798
L 298.008263 53.294454
L 298.279147 53.390571
L 298.55003 58.761163
L 299.091797 54.51948
L 299.362681 47.847434
L 299.633564 53.731057
L 300.175331 50.144012
L 300.446215 51.734223
L 300.717098 49.764249
L 300.987981 53.216561
L 301.258865 60.625335
L 301.529748 63.638395
L 301.800632 58.03938
L 302.071515 49.716843
L 302.342399 44.980735
L 302.613282 46.595193
L 302.884166 40.513668
L 303.155049 51.713934
L 303.696816 51.140523
L 303.967699 57.216912
L 304.238583 50.777212
L 304.509466 52.244432
L 304.78035 46.89961
L 305.051233 50.693392
L 305.322117 58.119558
L 305.593 54.03423
L 305.863884 57.122749
L 306.134767 53.655762
L 306.947417 46.838909
L 307.218301 57.622604
L 307.489184 59.965632
L 307.760068 49.925181
L 308.030951 47.360239
L 308.301835 58.288583
L 308.572718 54.089928
L 308.843602 69.089948
L 309.114485 58.900149
L 309.385368 54.73364
L 309.656252 46.728781
L 309.927135 56.033684
L 310.198019 51.084557
L 310.468902 52.23982
L 310.739786 54.449063
L 311.010669 55.096679
L 311.281553 50.678981
L 311.552436 49.803429
L 311.823319 55.881085
L 312.094203 53.971968
L 312.365086 59.61832
L 312.63597 55.981482
L 312.906853 43.279885
L 313.177737 49.934153
L 313.44862 46.322497
L 313.719504 49.527168
L 313.990387 48.32339
L 314.261271 48.374117
L 314.532154 60.708598
L 314.803037 55.292303
L 315.073921 52.904862
L 315.344804 58.891967
L 315.615688 50.963692
L 315.886571 51.003479
L 316.157455 56.473892
L 316.428338 51.734439
L 316.699222 50.747002
L 316.970105 46.053295
L 317.240989 53.152203
L 317.782755 58.426467
L 318.053639 52.698167
L 318.324522 55.109941
L 318.866289 50.874842
L 319.137173 58.069572
L 319.408056 60.309301
L 319.67894 60.821722
L 319.949823 50.77544
L 320.220706 57.093806
L 320.49159 51.882606
L 320.762473 51.543613
L 321.30424 58.009437
L 321.575124 51.247037
L 321.846007 50.843776
L 322.116891 44.793366
L 322.387774 53.203086
L 322.658658 55.174928
L 322.929541 59.360581
L 323.471308 56.543808
L 323.742191 55.142385
L 324.013075 55.47254
L 324.283958 52.648398
L 324.554842 53.962057
L 324.825725 52.097426
L 325.096609 52.290669
L 325.367492 53.142404
L 325.638376 54.602939
L 325.909259 55.249607
L 326.180142 49.880093
L 326.451026 60.327328
L 326.721909 51.256509
L 326.992793 55.507938
L 327.263676 52.298145
L 327.53456 54.488774
L 327.805443 49.864523
L 328.076327 61.715756
L 328.34721 61.645426
L 328.618093 51.652983
L 328.888977 48.214064
L 329.15986 53.093132
L 329.430744 60.095159
L 329.701627 51.687942
L 329.972511 47.253511
L 330.514278 58.133761
L 330.785161 51.355873
L 331.056045 56.733821
L 331.326928 53.201451
L 331.597811 52.980202
L 331.868695 52.31238
L 332.139578 54.592214
L 332.410462 53.790764
L 332.681345 57.11904
L 332.952229 57.424827
L 333.223112 61.852101
L 333.493996 53.802298
L 333.764879 62.681286
L 334.035763 51.742327
L 334.306646 57.589375
L 334.577529 56.619426
L 334.848413 57.702577
L 335.119296 48.326309
L 335.39018 50.652744
L 335.661063 56.364561
L 335.931947 49.324511
L 336.20283 55.839353
L 336.473714 54.751449
L 336.744597 52.787699
L 337.01548 48.312132
L 337.286364 46.617887
L 337.557247 70.976967
L 337.828131 52.994734
L 338.099014 56.929578
L 338.369898 46.421919
L 338.640781 52.126216
L 338.911665 51.380279
L 339.182548 46.344576
L 339.453432 58.15005
L 339.724315 47.367239
L 339.995198 57.816908
L 340.266082 49.821994
L 340.536965 46.551692
L 341.078732 52.62124
L 341.349616 57.943952
L 341.620499 55.81817
L 341.891383 59.277568
L 342.43315 49.866169
L 342.704033 57.909851
L 342.974916 47.360603
L 343.2458 47.939737
L 343.516683 47.202752
L 343.787567 55.833965
L 344.05845 54.673469
L 344.329334 47.782597
L 344.600217 49.707413
L 345.141984 61.491973
L 345.683751 52.776947
L 345.954634 56.335615
L 346.225518 51.336086
L 346.496401 50.686945
L 346.767285 52.928976
L 347.038168 61.754508
L 347.309052 49.962542
L 347.579935 50.766651
L 347.850819 46.207601
L 348.121702 47.45366
L 348.392585 45.716184
L 348.663469 49.902654
L 348.934352 47.186325
L 349.205236 58.590737
L 349.476119 54.637028
L 349.747003 56.323788
L 350.017886 54.196042
L 350.28877 55.486816
L 350.559653 53.649992
L 350.830537 50.103626
L 351.10142 56.017592
L 351.372303 55.779163
L 351.643187 49.378811
L 351.91407 45.783201
L 352.184954 47.13633
L 352.455837 59.74575
L 352.726721 50.240904
L 352.997604 51.081267
L 353.268488 55.578177
L 353.539371 51.970219
L 354.081138 57.960282
L 354.352021 55.704476
L 354.622905 42.390442
L 354.893788 41.312318
L 355.164672 50.586385
L 355.435555 46.703663
L 355.706439 59.021826
L 355.977322 53.520658
L 356.248206 55.09941
L 356.519089 55.403518
L 356.789972 53.058366
L 357.060856 45.66029
L 357.331739 58.92975
L 357.602623 45.393932
L 357.873506 42.671898
L 358.415273 56.261158
L 358.686157 51.862129
L 358.95704 52.062365
L 359.227924 44.954955
L 359.498807 56.817449
L 359.76969 52.178342
L 360.040574 54.551017
L 360.311457 53.370768
L 360.582341 48.899746
L 360.853224 52.722307
L 361.124108 44.950367
L 361.665875 57.643066
L 361.936758 58.040553
L 362.207641 51.051235
L 362.478525 54.252205
L 362.749408 45.208749
L 363.020292 57.140976
L 363.291175 50.149062
L 363.562059 50.940092
L 363.832942 54.407226
L 364.103826 51.018641
L 364.374709 49.983749
L 364.645593 53.208563
L 364.916476 43.232672
L 365.187359 40.306362
L 365.729126 55.165836
L 366.00001 57.16693
L 366.270893 51.279581
L 366.541777 51.48967
L 366.81266 55.449077
L 367.083544 44.73344
L 367.354427 56.156177
L 367.625311 57.130525
L 367.896194 67.417637
L 368.437961 49.379601
L 368.979728 57.788468
L 369.521495 48.863703
L 369.792378 49.051124
L 370.063262 56.106656
L 370.875912 48.812994
L 371.146795 52.910527
L 371.417679 50.199267
L 371.688562 58.340097
L 371.959446 50.745584
L 372.230329 50.59986
L 372.501213 54.859791
L 372.772096 50.83957
L 373.04298 52.325029
L 373.313863 49.47808
L 373.584746 48.51964
L 373.85563 51.239913
L 374.126513 48.39224
L 374.397397 57.296055
L 374.66828 57.430051
L 374.939164 46.310255
L 375.210047 47.545714
L 375.480931 50.288748
L 375.751814 57.152025
L 376.022698 51.426375
L 376.293581 49.965252
L 376.835348 54.598025
L 377.106231 47.375028
L 377.377115 64.784854
L 377.647998 52.746662
L 377.918882 58.065263
L 378.189765 50.736574
L 378.460649 50.086268
L 378.731532 54.783389
L 379.002415 53.319641
L 379.273299 59.181174
L 379.544182 42.739938
L 379.815066 46.710842
L 380.085949 48.97471
L 380.356833 52.4126
L 380.627716 53.104947
L 380.8986 51.783676
L 381.169483 63.791918
L 381.440367 55.456267
L 381.71125 58.245397
L 382.253017 48.686324
L 382.5239 55.068225
L 382.794784 56.376621
L 383.065667 48.809342
L 383.336551 52.025881
L 383.607434 58.674164
L 383.878318 49.492535
L 384.149201 46.94191
L 384.420085 50.112647
L 384.690968 55.806543
L 384.961851 51.438698
L 385.503618 53.029905
L 385.774502 57.702112
L 386.045385 60.306491
L 386.316269 51.49233
L 386.858036 60.026105
L 387.128919 57.521987
L 387.399802 45.369474
L 387.941569 58.123218
L 388.212453 54.393716
L 388.483336 57.20598
L 388.75422 51.791613
L 389.025103 57.894439
L 389.295987 56.230738
L 389.56687 43.070785
L 389.837754 52.664056
L 390.108637 49.592328
L 390.37952 57.013639
L 390.921287 43.316514
L 391.192171 44.470217
L 391.463054 51.727088
L 391.733938 47.587177
L 392.004821 38.403355
L 392.275705 50.665594
L 392.275705 50.665594
" clip-path="url(#p6ac8621947)" style="fill: none; stroke: #d67a2c; stroke-width: 0.75; stroke-linecap: square"/>
   </g>
   <g id="patch_9">
    <path d="M 284.193207 91.837195
L 284.193207 14.096431
" style="fill: none; stroke: #000000; stroke-width: 0.8; stroke-linejoin: miter; stroke-linecap: square"/>
   </g>
   <g id="patch_10">
    <path d="M 284.193207 91.837195
L 392.546588 91.837195
" style="fill: none; stroke: #000000; stroke-width: 0.8; stroke-linejoin: miter; stroke-linecap: square"/>
   </g>
   <g id="text_31">
    <text style="font-weight: 700; font-size: 7px; font-family: 'Arial', 'Helvetica', 'DejaVu Sans', sans-serif; text-anchor: middle; fill: #d67a2c" x="338.369898" y="8.096431" transform="rotate(-0 338.369898 8.096431)">Rule</text>
   </g>
  </g>
  <g id="axes_4">
   <g id="patch_11">
    <path d="M 404.216802 91.837195
L 512.570183 91.837195
L 512.570183 14.096431
L 404.216802 14.096431
z
" style="fill: #ffffff"/>
   </g>
   <g id="line2d_40">
    <path d="M 404.216802 52.966813
L 512.570183 52.966813
" clip-path="url(#pd801b41bf5)" style="fill: none; stroke: #d0d0d0; stroke-width: 0.45; stroke-linecap: square"/>
   </g>
   <g id="matplotlib.axis_7">
    <g id="xtick_19">
     <g id="line2d_41">
      <g>
       <use xlink:href="#m0ce1e1fcdd" x="404.216802" y="91.837195" style="stroke: #000000; stroke-width: 0.7"/>
      </g>
     </g>
     <g id="text_32">
      <text style="font-size: 5.7px; font-family: 'Arial', 'Helvetica', 'DejaVu Sans', sans-serif; text-anchor: middle" x="404.216802" y="101.986951" transform="rotate(-0 404.216802 101.986951)">0</text>
     </g>
    </g>
    <g id="xtick_20">
     <g id="line2d_42">
      <g>
       <use xlink:href="#m0ce1e1fcdd" x="425.887479" y="91.837195" style="stroke: #000000; stroke-width: 0.7"/>
      </g>
     </g>
     <g id="text_33">
      <text style="font-size: 5.7px; font-family: 'Arial', 'Helvetica', 'DejaVu Sans', sans-serif; text-anchor: middle" x="425.887479" y="101.986951" transform="rotate(-0 425.887479 101.986951)">10</text>
     </g>
    </g>
    <g id="xtick_21">
     <g id="line2d_43">
      <g>
       <use xlink:href="#m0ce1e1fcdd" x="447.558155" y="91.837195" style="stroke: #000000; stroke-width: 0.7"/>
      </g>
     </g>
     <g id="text_34">
      <text style="font-size: 5.7px; font-family: 'Arial', 'Helvetica', 'DejaVu Sans', sans-serif; text-anchor: middle" x="447.558155" y="101.986951" transform="rotate(-0 447.558155 101.986951)">20</text>
     </g>
    </g>
    <g id="xtick_22">
     <g id="line2d_44">
      <g>
       <use xlink:href="#m0ce1e1fcdd" x="469.228831" y="91.837195" style="stroke: #000000; stroke-width: 0.7"/>
      </g>
     </g>
     <g id="text_35">
      <text style="font-size: 5.7px; font-family: 'Arial', 'Helvetica', 'DejaVu Sans', sans-serif; text-anchor: middle" x="469.228831" y="101.986951" transform="rotate(-0 469.228831 101.986951)">30</text>
     </g>
    </g>
    <g id="xtick_23">
     <g id="line2d_45">
      <g>
       <use xlink:href="#m0ce1e1fcdd" x="490.899507" y="91.837195" style="stroke: #000000; stroke-width: 0.7"/>
      </g>
     </g>
     <g id="text_36">
      <text style="font-size: 5.7px; font-family: 'Arial', 'Helvetica', 'DejaVu Sans', sans-serif; text-anchor: middle" x="490.899507" y="101.986951" transform="rotate(-0 490.899507 101.986951)">40</text>
     </g>
    </g>
    <g id="xtick_24">
     <g id="line2d_46">
      <g>
       <use xlink:href="#m0ce1e1fcdd" x="512.570183" y="91.837195" style="stroke: #000000; stroke-width: 0.7"/>
      </g>
     </g>
     <g id="text_37">
      <text style="font-size: 5.7px; font-family: 'Arial', 'Helvetica', 'DejaVu Sans', sans-serif; text-anchor: middle" x="512.570183" y="101.986951" transform="rotate(-0 512.570183 101.986951)">50</text>
     </g>
    </g>
    <g id="text_38">
     <text style="font-size: 6.3px; font-family: 'Arial', 'Helvetica', 'DejaVu Sans', sans-serif; text-anchor: middle" x="458.393493" y="111.773084" transform="rotate(-0 458.393493 111.773084)">Time (ms)</text>
    </g>
   </g>
   <g id="matplotlib.axis_8">
    <g id="ytick_16">
     <g id="line2d_47">
      <g>
       <use xlink:href="#m1eed7ec5df" x="404.216802" y="80.39743" style="stroke: #000000; stroke-width: 0.7"/>
      </g>
     </g>
    </g>
    <g id="ytick_17">
     <g id="line2d_48">
      <g>
       <use xlink:href="#m1eed7ec5df" x="404.216802" y="66.682121" style="stroke: #000000; stroke-width: 0.7"/>
      </g>
     </g>
    </g>
    <g id="ytick_18">
     <g id="line2d_49">
      <g>
       <use xlink:href="#m1eed7ec5df" x="404.216802" y="52.966813" style="stroke: #000000; stroke-width: 0.7"/>
      </g>
     </g>
    </g>
    <g id="ytick_19">
     <g id="line2d_50">
      <g>
       <use xlink:href="#m1eed7ec5df" x="404.216802" y="39.251505" style="stroke: #000000; stroke-width: 0.7"/>
      </g>
     </g>
    </g>
    <g id="ytick_20">
     <g id="line2d_51">
      <g>
       <use xlink:href="#m1eed7ec5df" x="404.216802" y="25.536197" style="stroke: #000000; stroke-width: 0.7"/>
      </g>
     </g>
    </g>
   </g>
   <g id="line2d_52">
    <path d="M 404.216802 55.739348
L 404.487686 60.310505
L 404.758569 60.171213
L 405.029453 54.427922
L 405.300336 56.246641
L 405.57122 49.276924
L 405.842103 55.989463
L 406.38387 44.989909
L 406.654754 54.95731
L 407.19652 57.258897
L 407.467404 59.216905
L 407.738287 55.192716
L 408.009171 54.520127
L 408.280054 50.671351
L 408.550938 43.510958
L 408.821821 55.7599
L 409.092705 56.280096
L 409.363588 44.828824
L 409.634471 48.447166
L 409.905355 55.369074
L 410.176238 51.634856
L 410.718005 52.953869
L 410.988889 53.801512
L 411.259772 60.706554
L 411.530656 53.523477
L 411.801539 40.162294
L 412.072423 46.307897
L 412.343306 47.229668
L 412.614189 46.479046
L 413.155956 52.751437
L 413.42684 57.2137
L 413.968607 53.057777
L 414.23949 56.521807
L 414.781257 51.339336
L 415.052141 53.193227
L 415.593907 42.600244
L 415.864791 57.751083
L 416.135674 54.4732
L 416.406558 49.21173
L 416.677441 49.016091
L 416.948325 52.80443
L 417.219208 58.60781
L 417.490092 49.688046
L 417.760975 54.936441
L 418.031858 52.092974
L 418.302742 50.889058
L 418.573625 46.904299
L 418.844509 52.469626
L 419.115392 51.253777
L 419.386276 44.002833
L 419.657159 45.804595
L 419.928043 44.303414
L 420.198926 51.081809
L 420.46981 45.814795
L 420.740693 47.832818
L 421.011576 58.284932
L 421.28246 62.412336
L 421.553343 50.342659
L 421.824227 48.262293
L 422.09511 55.848642
L 422.365994 49.849213
L 422.636877 50.44882
L 422.907761 53.695025
L 423.178644 54.732535
L 423.449528 62.973747
L 423.720411 62.530565
L 423.991294 59.355955
L 424.262178 54.542351
L 424.533061 55.000863
L 424.803945 52.127508
L 425.074828 54.52353
L 425.616595 55.367609
L 425.887479 53.268801
L 426.158362 55.037415
L 426.700129 61.613167
L 426.971012 57.49788
L 427.241896 56.876034
L 427.512779 54.886402
L 427.783663 58.027042
L 428.054546 50.901949
L 428.32543 39.185767
L 428.867197 54.669843
L 429.13808 56.087725
L 429.408963 54.985398
L 429.679847 52.678876
L 429.95073 53.182375
L 430.221614 61.223284
L 430.763381 42.789151
L 431.034264 50.445369
L 431.305148 45.399537
L 431.846915 56.600701
L 432.117798 51.902752
L 432.388681 50.647189
L 432.659565 57.738129
L 432.930448 61.150391
L 433.201332 45.3906
L 433.472215 48.469663
L 433.743099 56.612903
L 434.013982 57.165536
L 434.284866 52.354825
L 434.555749 60.069319
L 434.826632 59.503299
L 435.097516 48.687097
L 435.368399 47.115461
L 435.639283 54.032445
L 435.910166 56.763754
L 436.18105 50.118193
L 436.451933 50.89178
L 436.722817 56.589382
L 437.535467 51.937588
L 437.80635 45.371747
L 438.077234 51.972798
L 438.348117 52.541413
L 438.619001 45.481488
L 438.889884 56.537243
L 439.160768 55.309419
L 439.431651 43.333664
L 439.702535 51.892559
L 439.973418 50.211255
L 440.244302 56.825423
L 440.515185 57.024381
L 440.786068 56.178763
L 441.056952 54.05728
L 441.327835 44.402997
L 441.869602 54.533013
L 442.140486 41.277292
L 442.411369 44.055266
L 442.682253 56.727504
L 442.953136 51.191392
L 443.224019 53.210433
L 443.494903 59.436979
L 443.765786 50.896489
L 444.307553 50.982301
L 444.578437 45.135946
L 445.120204 48.676424
L 445.661971 63.979157
L 445.932854 52.011643
L 446.203737 56.291386
L 446.474621 50.006451
L 447.016388 59.16345
L 447.287271 53.038138
L 447.558155 49.800912
L 447.829038 56.406639
L 448.099922 56.17825
L 448.370805 49.622535
L 448.641689 49.867021
L 448.912572 44.884215
L 449.183455 52.289635
L 449.454339 54.510198
L 449.725222 48.401652
L 449.996106 58.835577
L 450.266989 56.624088
L 450.537873 55.530617
L 450.808756 60.733461
L 451.07964 50.291271
L 451.350523 46.708788
L 451.89229 64.843122
L 452.163173 62.666265
L 452.434057 50.434233
L 452.70494 49.745393
L 452.975824 55.830915
L 453.246707 51.054784
L 453.517591 51.287734
L 453.788474 64.00367
L 454.059358 51.979225
L 454.330241 53.678815
L 454.601124 64.311008
L 454.872008 48.183398
L 455.142891 44.284282
L 455.413775 58.861216
L 455.684658 57.229558
L 455.955542 48.40817
L 456.226425 52.487964
L 456.497309 52.476198
L 456.768192 49.919349
L 457.039076 45.883676
L 457.309959 45.524634
L 457.580842 43.823344
L 457.851726 41.335379
L 458.122609 50.35875
L 458.393493 47.704482
L 458.664376 49.936715
L 458.93526 49.332157
L 459.206143 44.350896
L 459.477027 49.003922
L 459.74791 41.7806
L 460.018793 48.776379
L 460.289677 52.430714
L 460.56056 49.641206
L 460.831444 45.258606
L 461.644094 59.088773
L 461.914978 51.738568
L 462.185861 48.32745
L 462.456745 49.646811
L 462.727628 48.710906
L 462.998511 52.546683
L 463.269395 60.425892
L 463.540278 59.213707
L 463.811162 51.402904
L 464.082045 52.263797
L 464.352929 48.426838
L 464.623812 56.616576
L 464.894696 54.328196
L 465.165579 50.251252
L 465.436463 57.807939
L 465.707346 52.927848
L 466.249113 57.918965
L 466.79088 50.062573
L 467.061763 50.039625
L 467.332647 53.450281
L 467.60353 46.890332
L 467.874414 49.994469
L 468.41618 58.610217
L 468.687064 50.579591
L 468.957947 48.479321
L 469.228831 48.906488
L 469.499714 53.786164
L 469.770598 48.663663
L 470.041481 48.312513
L 470.312365 57.133433
L 470.583248 53.031327
L 470.854132 46.977466
L 471.125015 51.014668
L 471.395898 52.783601
L 471.666782 51.712118
L 471.937665 54.471769
L 472.208549 48.306034
L 472.479432 53.710504
L 472.750316 54.982998
L 473.021199 60.396174
L 473.292083 62.750867
L 473.562966 63.66749
L 473.83385 62.455455
L 474.104733 54.475684
L 474.6465 50.487625
L 474.917383 53.383437
L 475.188267 50.898417
L 475.45915 57.998159
L 475.730034 58.415016
L 476.000917 57.186964
L 476.271801 61.884596
L 477.084451 50.931495
L 477.355334 57.030997
L 477.626218 57.468001
L 477.897101 57.380856
L 478.167985 48.759277
L 478.438868 48.834483
L 478.709752 51.007389
L 478.980635 57.802255
L 479.251519 60.155062
L 479.793285 46.674579
L 480.064169 51.418732
L 480.335052 60.805858
L 480.605936 53.668438
L 480.876819 53.048944
L 481.147703 52.055944
L 481.68947 48.681836
L 481.960353 52.252111
L 482.231237 45.973075
L 482.50212 53.72122
L 482.773003 54.837977
L 483.043887 47.039072
L 483.856537 50.406674
L 484.398304 43.034968
L 484.669188 56.599539
L 484.940071 57.974563
L 485.210954 52.882003
L 485.481838 54.589824
L 486.023605 41.168432
L 486.294488 55.64606
L 486.565372 57.775329
L 486.836255 46.562513
L 487.378022 54.511621
L 487.648906 45.817764
L 487.919789 31.445849
L 488.190672 38.540959
L 488.461556 66.438776
L 488.732439 64.143973
L 489.003323 50.30531
L 489.274206 46.535642
L 489.54509 50.564568
L 489.815973 56.88487
L 490.086857 55.220214
L 490.35774 43.885545
L 490.628624 45.67521
L 491.17039 54.583802
L 491.441274 54.741722
L 491.712157 58.646312
L 491.983041 52.003573
L 492.253924 51.393458
L 492.524808 51.297397
L 492.795691 55.124204
L 493.066575 54.277674
L 493.337458 45.833467
L 493.608341 43.56993
L 494.150108 64.268589
L 494.420992 68.693582
L 494.962759 46.947288
L 495.233642 48.438946
L 495.504526 48.359149
L 495.775409 54.304904
L 496.046293 50.112821
L 496.317176 37.777098
L 496.588059 40.325473
L 496.858943 52.265002
L 497.129826 53.620578
L 497.40071 50.487847
L 497.671593 53.194786
L 497.942477 61.115106
L 498.21336 60.969746
L 498.755127 56.263932
L 499.296894 39.030123
L 499.567777 35.270386
L 499.838661 47.914145
L 500.109544 52.484341
L 500.380428 41.958218
L 500.651311 54.713472
L 500.922195 57.88567
L 501.193078 47.807459
L 501.463962 44.520022
L 501.734845 52.973379
L 502.005728 52.98941
L 502.276612 43.710247
L 502.547495 43.132766
L 502.818379 48.31892
L 503.089262 49.165872
L 503.360146 46.884247
L 503.631029 49.050073
L 503.901913 48.384485
L 504.172796 47.41493
L 504.44368 43.942886
L 504.714563 48.334524
L 504.985446 58.426143
L 505.25633 56.72042
L 505.527213 46.70345
L 505.798097 44.490487
L 506.610747 55.091258
L 507.152514 46.478847
L 507.423398 52.725885
L 507.694281 54.854439
L 507.965164 58.890261
L 508.236048 58.875269
L 508.506931 53.893384
L 508.777815 46.845219
L 509.319582 56.857012
L 509.590465 48.606138
L 509.861349 46.197946
L 510.132232 48.037519
L 510.403115 63.638537
L 510.673999 58.222261
L 510.944882 61.644387
L 511.215766 55.848516
L 511.486649 52.986244
L 511.757533 55.604103
L 512.2993 45.737105
L 512.2993 45.737105
" clip-path="url(#pd801b41bf5)" style="fill: none; stroke: #777777; stroke-width: 0.75; stroke-linecap: square"/>
   </g>
   <g id="patch_12">
    <path d="M 404.216802 91.837195
L 404.216802 14.096431
" style="fill: none; stroke: #000000; stroke-width: 0.8; stroke-linejoin: miter; stroke-linecap: square"/>
   </g>
   <g id="patch_13">
    <path d="M 404.216802 91.837195
L 512.570183 91.837195
" style="fill: none; stroke: #000000; stroke-width: 0.8; stroke-linejoin: miter; stroke-linecap: square"/>
   </g>
   <g id="text_39">
    <text style="font-weight: 700; font-size: 7px; font-family: 'Arial', 'Helvetica', 'DejaVu Sans', sans-serif; text-anchor: middle; fill: #777777" x="458.393493" y="8.096431" transform="rotate(-0 458.393493 8.096431)">Random</text>
   </g>
  </g>
  <g id="axes_5">
   <g id="patch_14">
    <path d="M 44.146017 196.84028
L 152.499398 196.84028
L 152.499398 119.099517
L 44.146017 119.099517
z
" style="fill: #ffffff"/>
   </g>
   <g id="FillBetweenPolyCollection_1">
    <defs>
     <path id="me557167578" d="M 44.146017 -32.966831
L 44.146017 -25.050381
L 46.069905 -26.108822
L 47.993794 -26.266977
L 49.917682 -26.324767
L 51.84157 -26.657093
L 53.765458 -26.170786
L 55.689346 -25.874793
L 57.613234 -26.023855
L 59.537123 -26.269663
L 61.461011 -26.018953
L 63.384899 -26.135536
L 65.308787 -26.182073
L 67.232675 -26.699391
L 69.156563 -29.759639
L 71.080451 -29.545297
L 73.00434 -26.174966
L 74.928228 -26.004921
L 76.852116 -26.212247
L 78.776004 -26.125499
L 80.699892 -26.021464
L 82.62378 -25.896494
L 84.547669 -26.036675
L 86.471557 -26.487424
L 88.395445 -26.211398
L 90.319333 -25.938348
L 92.243221 -26.681608
L 94.167109 -27.503029
L 96.090997 -28.893895
L 98.014886 -26.720486
L 99.938774 -25.987084
L 101.862662 -25.986966
L 103.78655 -26.107083
L 105.710438 -25.970719
L 107.634326 -25.790845
L 109.558214 -25.880894
L 111.482103 -25.868591
L 113.405991 -25.877226
L 115.329879 -25.904212
L 117.253767 -26.128331
L 119.177655 -26.427117
L 121.101543 -27.309142
L 123.025432 -26.833776
L 124.94932 -25.958002
L 126.873208 -25.94433
L 128.797096 -26.052171
L 130.720984 -25.959311
L 132.644872 -25.79883
L 134.56876 -25.818896
L 136.492649 -25.869544
L 138.416537 -25.81456
L 140.340425 -25.772769
L 142.264313 -26.173975
L 144.188201 -26.214958
L 146.112089 -26.471477
L 148.035977 -26.800793
L 149.959866 -25.940066
L 151.883754 -25.864501
L 151.883754 -35.728439
L 151.883754 -35.728439
L 149.959866 -38.045669
L 148.035977 -49.377839
L 146.112089 -42.79591
L 144.188201 -42.710752
L 142.264313 -42.688135
L 140.340425 -36.62364
L 138.416537 -35.358938
L 136.492649 -35.520868
L 134.56876 -34.972788
L 132.644872 -35.290122
L 130.720984 -35.78716
L 128.797096 -36.944097
L 126.873208 -35.61613
L 124.94932 -36.130919
L 123.025432 -52.967206
L 121.101543 -57.511807
L 119.177655 -46.926583
L 117.253767 -41.410628
L 115.329879 -37.140242
L 113.405991 -35.704436
L 111.482103 -35.449607
L 109.558214 -36.131059
L 107.634326 -35.591996
L 105.710438 -36.280426
L 103.78655 -37.241428
L 101.862662 -36.108256
L 99.938774 -36.100507
L 98.014886 -50.124611
L 96.090997 -82.501584
L 94.167109 -63.216795
L 92.243221 -52.641238
L 90.319333 -37.392517
L 88.395445 -36.629038
L 86.471557 -36.620789
L 84.547669 -36.086972
L 82.62378 -35.516027
L 80.699892 -35.72582
L 78.776004 -36.710863
L 76.852116 -36.213516
L 74.928228 -36.391624
L 73.00434 -40.321498
L 71.080451 -93.331532
L 69.156563 -96.24427
L 67.232675 -48.449625
L 65.308787 -39.299841
L 63.384899 -36.218471
L 61.461011 -36.496099
L 59.537123 -35.956424
L 57.613234 -35.416825
L 55.689346 -35.26912
L 53.765458 -36.346964
L 51.84157 -36.66229
L 49.917682 -36.598039
L 47.993794 -38.522477
L 46.069905 -40.810846
L 44.146017 -32.966831
z
"/>
    </defs>
    <g clip-path="url(#p829a0c830e)">
     <use xlink:href="#me557167578" x="0" y="221.102362" style="fill: #2f2f2f; fill-opacity: 0.2"/>
    </g>
   </g>
   <g id="matplotlib.axis_9">
    <g id="xtick_25">
     <g id="line2d_53">
      <g>
       <use xlink:href="#m0ce1e1fcdd" x="44.146017" y="196.84028" style="stroke: #000000; stroke-width: 0.7"/>
      </g>
     </g>
     <g id="text_40">
      <text style="font-size: 5.7px; font-family: 'Arial', 'Helvetica', 'DejaVu Sans', sans-serif; text-anchor: middle" x="44.146017" y="206.990036" transform="rotate(-0 44.146017 206.990036)">0</text>
     </g>
    </g>
    <g id="xtick_26">
     <g id="line2d_54">
      <g>
       <use xlink:href="#m0ce1e1fcdd" x="68.771786" y="196.84028" style="stroke: #000000; stroke-width: 0.7"/>
      </g>
     </g>
     <g id="text_41">
      <text style="font-size: 5.7px; font-family: 'Arial', 'Helvetica', 'DejaVu Sans', sans-serif; text-anchor: middle" x="68.771786" y="206.990036" transform="rotate(-0 68.771786 206.990036)">50</text>
     </g>
    </g>
    <g id="xtick_27">
     <g id="line2d_55">
      <g>
       <use xlink:href="#m0ce1e1fcdd" x="93.397554" y="196.84028" style="stroke: #000000; stroke-width: 0.7"/>
      </g>
     </g>
     <g id="text_42">
      <text style="font-size: 5.7px; font-family: 'Arial', 'Helvetica', 'DejaVu Sans', sans-serif; text-anchor: middle" x="93.397554" y="206.990036" transform="rotate(-0 93.397554 206.990036)">100</text>
     </g>
    </g>
    <g id="xtick_28">
     <g id="line2d_56">
      <g>
       <use xlink:href="#m0ce1e1fcdd" x="118.023322" y="196.84028" style="stroke: #000000; stroke-width: 0.7"/>
      </g>
     </g>
     <g id="text_43">
      <text style="font-size: 5.7px; font-family: 'Arial', 'Helvetica', 'DejaVu Sans', sans-serif; text-anchor: middle" x="118.023322" y="206.990036" transform="rotate(-0 118.023322 206.990036)">150</text>
     </g>
    </g>
    <g id="xtick_29">
     <g id="line2d_57">
      <g>
       <use xlink:href="#m0ce1e1fcdd" x="142.649091" y="196.84028" style="stroke: #000000; stroke-width: 0.7"/>
      </g>
     </g>
     <g id="text_44">
      <text style="font-size: 5.7px; font-family: 'Arial', 'Helvetica', 'DejaVu Sans', sans-serif; text-anchor: middle" x="142.649091" y="206.990036" transform="rotate(-0 142.649091 206.990036)">200</text>
     </g>
    </g>
    <g id="text_45">
     <text style="font-size: 6.3px; font-family: 'Arial', 'Helvetica', 'DejaVu Sans', sans-serif; text-anchor: middle" x="98.322708" y="216.776169" transform="rotate(-0 98.322708 216.776169)">Frequency (Hz)</text>
    </g>
   </g>
   <g id="matplotlib.axis_10">
    <g id="ytick_21">
     <g id="line2d_58">
      <g>
       <use xlink:href="#m1eed7ec5df" x="44.146017" y="196.84028" style="stroke: #000000; stroke-width: 0.7"/>
      </g>
     </g>
     <g id="text_46">
      <text style="font-size: 5.7px; font-family: 'Arial', 'Helvetica', 'DejaVu Sans', sans-serif; text-anchor: end" x="38.146017" y="198.915158" transform="rotate(-0 38.146017 198.915158)">0.0000</text>
     </g>
    </g>
    <g id="ytick_22">
     <g id="line2d_59">
      <g>
       <use xlink:href="#m1eed7ec5df" x="44.146017" y="183.325215" style="stroke: #000000; stroke-width: 0.7"/>
      </g>
     </g>
     <g id="text_47">
      <text style="font-size: 5.7px; font-family: 'Arial', 'Helvetica', 'DejaVu Sans', sans-serif; text-anchor: end" x="38.146017" y="185.400093" transform="rotate(-0 38.146017 185.400093)">0.0005</text>
     </g>
    </g>
    <g id="ytick_23">
     <g id="line2d_60">
      <g>
       <use xlink:href="#m1eed7ec5df" x="44.146017" y="169.81015" style="stroke: #000000; stroke-width: 0.7"/>
      </g>
     </g>
     <g id="text_48">
      <text style="font-size: 5.7px; font-family: 'Arial', 'Helvetica', 'DejaVu Sans', sans-serif; text-anchor: end" x="38.146017" y="171.885027" transform="rotate(-0 38.146017 171.885027)">0.0010</text>
     </g>
    </g>
    <g id="ytick_24">
     <g id="line2d_61">
      <g>
       <use xlink:href="#m1eed7ec5df" x="44.146017" y="156.295084" style="stroke: #000000; stroke-width: 0.7"/>
      </g>
     </g>
     <g id="text_49">
      <text style="font-size: 5.7px; font-family: 'Arial', 'Helvetica', 'DejaVu Sans', sans-serif; text-anchor: end" x="38.146017" y="158.369962" transform="rotate(-0 38.146017 158.369962)">0.0015</text>
     </g>
    </g>
    <g id="ytick_25">
     <g id="line2d_62">
      <g>
       <use xlink:href="#m1eed7ec5df" x="44.146017" y="142.780019" style="stroke: #000000; stroke-width: 0.7"/>
      </g>
     </g>
     <g id="text_50">
      <text style="font-size: 5.7px; font-family: 'Arial', 'Helvetica', 'DejaVu Sans', sans-serif; text-anchor: end" x="38.146017" y="144.854897" transform="rotate(-0 38.146017 144.854897)">0.0020</text>
     </g>
    </g>
    <g id="ytick_26">
     <g id="line2d_63">
      <g>
       <use xlink:href="#m1eed7ec5df" x="44.146017" y="129.264953" style="stroke: #000000; stroke-width: 0.7"/>
      </g>
     </g>
     <g id="text_51">
      <text style="font-size: 5.7px; font-family: 'Arial', 'Helvetica', 'DejaVu Sans', sans-serif; text-anchor: end" x="38.146017" y="131.339831" transform="rotate(-0 38.146017 131.339831)">0.0025</text>
     </g>
    </g>
    <g id="text_52">
     <text style="font-size: 6.3px; font-family: 'Arial', 'Helvetica', 'DejaVu Sans', sans-serif" transform="translate(8.059005 171.104414) rotate(-90)">Envelope</text>
     <text style="font-size: 6.3px; font-family: 'Arial', 'Helvetica', 'DejaVu Sans', sans-serif" transform="translate(14.915792 170.922797) rotate(-90)">spectrum</text>
    </g>
   </g>
   <g id="line2d_64">
    <path d="M 44.146017 194.505373
L 46.069905 191.066747
L 47.993794 191.555331
L 49.917682 192.464846
L 51.84157 191.894361
L 53.765458 192.460777
L 55.689346 193.017802
L 57.613234 192.646659
L 59.537123 192.628168
L 61.461011 192.532727
L 63.384899 192.309921
L 65.308787 191.661962
L 67.232675 189.239176
L 69.156563 181.05813
L 71.080451 182.156732
L 73.00434 191.584226
L 74.928228 192.486879
L 76.852116 192.404098
L 78.776004 192.372937
L 80.699892 192.77254
L 82.62378 193.019889
L 84.547669 192.795968
L 86.471557 191.301024
L 88.395445 192.051949
L 90.319333 192.101448
L 92.243221 186.090169
L 94.167109 185.959569
L 96.090997 180.14521
L 98.014886 188.699281
L 99.938774 192.095761
L 101.862662 192.647895
L 103.78655 192.537415
L 105.710438 192.82002
L 107.634326 193.043384
L 109.558214 193.062861
L 111.482103 192.905282
L 113.405991 192.713701
L 115.329879 192.275156
L 117.253767 191.134678
L 119.177655 189.505284
L 121.101543 187.249652
L 123.025432 188.086268
L 124.94932 192.289756
L 126.873208 192.6127
L 128.797096 192.513005
L 130.720984 192.813643
L 132.644872 193.178021
L 134.56876 193.005368
L 136.492649 193.269571
L 138.416537 193.047357
L 140.340425 192.791561
L 142.264313 191.340748
L 144.188201 190.786307
L 146.112089 190.031452
L 148.035977 186.02073
L 149.959866 192.061991
L 151.883754 192.471202
" clip-path="url(#p829a0c830e)" style="fill: none; stroke: #2f2f2f; stroke-width: 0.9; stroke-linecap: square"/>
   </g>
   <g id="patch_15">
    <path d="M 44.146017 196.84028
L 44.146017 119.099517
" style="fill: none; stroke: #000000; stroke-width: 0.8; stroke-linejoin: miter; stroke-linecap: square"/>
   </g>
   <g id="patch_16">
    <path d="M 44.146017 196.84028
L 152.499398 196.84028
" style="fill: none; stroke: #000000; stroke-width: 0.8; stroke-linejoin: miter; stroke-linecap: square"/>
   </g>
  </g>
  <g id="axes_6">
   <g id="patch_17">
    <path d="M 164.169612 196.84028
L 272.522993 196.84028
L 272.522993 119.099517
L 164.169612 119.099517
z
" style="fill: #ffffff"/>
   </g>
   <g id="FillBetweenPolyCollection_2">
    <defs>
     <path id="mb41e1824df" d="M 164.169612 -28.085151
L 164.169612 -24.816821
L 166.093501 -25.630715
L 168.017389 -25.847233
L 169.941277 -26.123875
L 171.865165 -25.826034
L 173.789053 -25.870778
L 175.712941 -25.92139
L 177.636829 -25.73921
L 179.560718 -25.789131
L 181.484606 -25.941131
L 183.408494 -25.963091
L 185.332382 -25.896065
L 187.25627 -25.773374
L 189.180158 -25.945074
L 191.104046 -25.859374
L 193.027935 -26.026259
L 194.951823 -25.788791
L 196.875711 -25.750399
L 198.799599 -25.715263
L 200.723487 -25.751656
L 202.647375 -25.828924
L 204.571264 -26.14945
L 206.495152 -25.881141
L 208.41904 -25.980707
L 210.342928 -25.869365
L 212.266816 -25.885423
L 214.190704 -25.74941
L 216.114592 -26.079663
L 218.038481 -25.566444
L 219.962369 -25.825502
L 221.886257 -25.991753
L 223.810145 -25.777053
L 225.734033 -25.836627
L 227.657921 -26.080015
L 229.58181 -26.019292
L 231.505698 -25.956885
L 233.429586 -26.086764
L 235.353474 -25.77712
L 237.277362 -25.936293
L 239.20125 -25.861588
L 241.125138 -25.959434
L 243.049027 -26.04505
L 244.972915 -25.949005
L 246.896803 -25.984548
L 248.820691 -25.931358
L 250.744579 -25.891336
L 252.668467 -25.834722
L 254.592355 -25.781926
L 256.516244 -25.740566
L 258.440132 -25.847742
L 260.36402 -25.617113
L 262.287908 -25.77549
L 264.211796 -25.631215
L 266.135684 -25.773215
L 268.059573 -25.90816
L 269.983461 -25.855337
L 271.907349 -25.947741
L 271.907349 -31.150453
L 271.907349 -31.150453
L 269.983461 -30.843828
L 268.059573 -31.016763
L 266.135684 -31.652082
L 264.211796 -31.861079
L 262.287908 -32.864873
L 260.36402 -32.318842
L 258.440132 -31.630149
L 256.516244 -30.969555
L 254.592355 -31.062911
L 252.668467 -31.93728
L 250.744579 -31.603416
L 248.820691 -31.487818
L 246.896803 -31.455685
L 244.972915 -32.464248
L 243.049027 -31.881501
L 241.125138 -32.033306
L 239.20125 -31.895917
L 237.277362 -31.701093
L 235.353474 -31.205545
L 233.429586 -31.959971
L 231.505698 -32.652772
L 229.58181 -32.946701
L 227.657921 -32.011146
L 225.734033 -31.800206
L 223.810145 -32.416368
L 221.886257 -32.180231
L 219.962369 -31.578367
L 218.038481 -31.957567
L 216.114592 -32.410877
L 214.190704 -32.870053
L 212.266816 -31.842157
L 210.342928 -32.111869
L 208.41904 -32.610835
L 206.495152 -32.446091
L 204.571264 -31.670071
L 202.647375 -31.536757
L 200.723487 -32.106957
L 198.799599 -30.179061
L 196.875711 -31.246962
L 194.951823 -30.942125
L 193.027935 -32.583447
L 191.104046 -32.984862
L 189.180158 -32.109744
L 187.25627 -31.763273
L 185.332382 -32.379681
L 183.408494 -32.07445
L 181.484606 -31.631154
L 179.560718 -32.477284
L 177.636829 -31.635572
L 175.712941 -32.471432
L 173.789053 -33.113052
L 171.865165 -32.74182
L 169.941277 -32.200302
L 168.017389 -32.75381
L 166.093501 -32.267807
L 164.169612 -28.085151
z
"/>
    </defs>
    <g clip-path="url(#pd46239c82a)">
     <use xlink:href="#mb41e1824df" x="0" y="221.102362" style="fill: #0f4d92; fill-opacity: 0.2"/>
    </g>
   </g>
   <g id="matplotlib.axis_11">
    <g id="xtick_30">
     <g id="line2d_65">
      <g>
       <use xlink:href="#m0ce1e1fcdd" x="164.169612" y="196.84028" style="stroke: #000000; stroke-width: 0.7"/>
      </g>
     </g>
     <g id="text_53">
      <text style="font-size: 5.7px; font-family: 'Arial', 'Helvetica', 'DejaVu Sans', sans-serif; text-anchor: middle" x="164.169612" y="206.990036" transform="rotate(-0 164.169612 206.990036)">0</text>
     </g>
    </g>
    <g id="xtick_31">
     <g id="line2d_66">
      <g>
       <use xlink:href="#m0ce1e1fcdd" x="188.795381" y="196.84028" style="stroke: #000000; stroke-width: 0.7"/>
      </g>
     </g>
     <g id="text_54">
      <text style="font-size: 5.7px; font-family: 'Arial', 'Helvetica', 'DejaVu Sans', sans-serif; text-anchor: middle" x="188.795381" y="206.990036" transform="rotate(-0 188.795381 206.990036)">50</text>
     </g>
    </g>
    <g id="xtick_32">
     <g id="line2d_67">
      <g>
       <use xlink:href="#m0ce1e1fcdd" x="213.421149" y="196.84028" style="stroke: #000000; stroke-width: 0.7"/>
      </g>
     </g>
     <g id="text_55">
      <text style="font-size: 5.7px; font-family: 'Arial', 'Helvetica', 'DejaVu Sans', sans-serif; text-anchor: middle" x="213.421149" y="206.990036" transform="rotate(-0 213.421149 206.990036)">100</text>
     </g>
    </g>
    <g id="xtick_33">
     <g id="line2d_68">
      <g>
       <use xlink:href="#m0ce1e1fcdd" x="238.046917" y="196.84028" style="stroke: #000000; stroke-width: 0.7"/>
      </g>
     </g>
     <g id="text_56">
      <text style="font-size: 5.7px; font-family: 'Arial', 'Helvetica', 'DejaVu Sans', sans-serif; text-anchor: middle" x="238.046917" y="206.990036" transform="rotate(-0 238.046917 206.990036)">150</text>
     </g>
    </g>
    <g id="xtick_34">
     <g id="line2d_69">
      <g>
       <use xlink:href="#m0ce1e1fcdd" x="262.672686" y="196.84028" style="stroke: #000000; stroke-width: 0.7"/>
      </g>
     </g>
     <g id="text_57">
      <text style="font-size: 5.7px; font-family: 'Arial', 'Helvetica', 'DejaVu Sans', sans-serif; text-anchor: middle" x="262.672686" y="206.990036" transform="rotate(-0 262.672686 206.990036)">200</text>
     </g>
    </g>
    <g id="text_58">
     <text style="font-size: 6.3px; font-family: 'Arial', 'Helvetica', 'DejaVu Sans', sans-serif; text-anchor: middle" x="218.346303" y="216.776169" transform="rotate(-0 218.346303 216.776169)">Frequency (Hz)</text>
    </g>
   </g>
   <g id="matplotlib.axis_12">
    <g id="ytick_27">
     <g id="line2d_70">
      <g>
       <use xlink:href="#m1eed7ec5df" x="164.169612" y="196.84028" style="stroke: #000000; stroke-width: 0.7"/>
      </g>
     </g>
    </g>
    <g id="ytick_28">
     <g id="line2d_71">
      <g>
       <use xlink:href="#m1eed7ec5df" x="164.169612" y="183.325215" style="stroke: #000000; stroke-width: 0.7"/>
      </g>
     </g>
    </g>
    <g id="ytick_29">
     <g id="line2d_72">
      <g>
       <use xlink:href="#m1eed7ec5df" x="164.169612" y="169.81015" style="stroke: #000000; stroke-width: 0.7"/>
      </g>
     </g>
    </g>
    <g id="ytick_30">
     <g id="line2d_73">
      <g>
       <use xlink:href="#m1eed7ec5df" x="164.169612" y="156.295084" style="stroke: #000000; stroke-width: 0.7"/>
      </g>
     </g>
    </g>
    <g id="ytick_31">
     <g id="line2d_74">
      <g>
       <use xlink:href="#m1eed7ec5df" x="164.169612" y="142.780019" style="stroke: #000000; stroke-width: 0.7"/>
      </g>
     </g>
    </g>
    <g id="ytick_32">
     <g id="line2d_75">
      <g>
       <use xlink:href="#m1eed7ec5df" x="164.169612" y="129.264953" style="stroke: #000000; stroke-width: 0.7"/>
      </g>
     </g>
    </g>
   </g>
   <g id="line2d_76">
    <path d="M 164.169612 195.215458
L 166.093501 193.795802
L 168.017389 192.996864
L 169.941277 193.089094
L 171.865165 193.52609
L 173.789053 193.401458
L 175.712941 192.73882
L 177.636829 192.927745
L 179.560718 193.178465
L 181.484606 192.976268
L 183.408494 193.183784
L 185.332382 193.52426
L 187.25627 193.754234
L 189.180158 193.481091
L 191.104046 192.917527
L 193.027935 193.095392
L 194.951823 193.632013
L 196.875711 193.790396
L 198.799599 194.05073
L 200.723487 193.328565
L 202.647375 193.798164
L 204.571264 193.407836
L 206.495152 193.239441
L 208.41904 193.039279
L 210.342928 193.146266
L 212.266816 193.231518
L 214.190704 192.448416
L 216.114592 193.482292
L 218.038481 193.779212
L 219.962369 192.752334
L 221.886257 193.219246
L 223.810145 193.451985
L 225.734033 193.782168
L 227.657921 193.083998
L 229.58181 193.157078
L 231.505698 193.175229
L 233.429586 192.75586
L 235.353474 193.068161
L 237.277362 193.369794
L 239.20125 193.429498
L 241.125138 193.116217
L 243.049027 193.531605
L 244.972915 193.2368
L 246.896803 192.803836
L 248.820691 192.887622
L 250.744579 193.603334
L 252.668467 193.665221
L 254.592355 193.645974
L 256.516244 193.169349
L 258.440132 193.281445
L 260.36402 193.56582
L 262.287908 193.509196
L 264.211796 193.50951
L 266.135684 193.2176
L 268.059573 193.467863
L 269.983461 193.468199
L 271.907349 193.92178
" clip-path="url(#pd46239c82a)" style="fill: none; stroke: #0f4d92; stroke-width: 0.9; stroke-linecap: square"/>
   </g>
   <g id="patch_18">
    <path d="M 164.169612 196.84028
L 164.169612 119.099517
" style="fill: none; stroke: #000000; stroke-width: 0.8; stroke-linejoin: miter; stroke-linecap: square"/>
   </g>
   <g id="patch_19">
    <path d="M 164.169612 196.84028
L 272.522993 196.84028
" style="fill: none; stroke: #000000; stroke-width: 0.8; stroke-linejoin: miter; stroke-linecap: square"/>
   </g>
  </g>
  <g id="axes_7">
   <g id="patch_20">
    <path d="M 284.193207 196.84028
L 392.546588 196.84028
L 392.546588 119.099517
L 284.193207 119.099517
z
" style="fill: #ffffff"/>
   </g>
   <g id="FillBetweenPolyCollection_3">
    <defs>
     <path id="m6437b02431" d="M 284.193207 -26.424957
L 284.193207 -24.758863
L 286.117096 -25.661715
L 288.040984 -25.888943
L 289.964872 -26.022777
L 291.88876 -25.951736
L 293.812648 -25.989351
L 295.736536 -26.197976
L 297.660424 -26.102245
L 299.584313 -26.121651
L 301.508201 -26.008735
L 303.432089 -25.911823
L 305.355977 -25.890777
L 307.279865 -26.140849
L 309.203753 -26.007718
L 311.127642 -25.972042
L 313.05153 -25.749827
L 314.975418 -25.955414
L 316.899306 -25.892656
L 318.823194 -25.8721
L 320.747082 -25.99644
L 322.67097 -25.998346
L 324.594859 -26.12585
L 326.518747 -26.025205
L 328.442635 -25.934042
L 330.366523 -25.962828
L 332.290411 -25.970662
L 334.214299 -25.714747
L 336.138187 -25.907276
L 338.062076 -26.098445
L 339.985964 -25.984241
L 341.909852 -26.074078
L 343.83374 -25.908602
L 345.757628 -25.882198
L 347.681516 -25.80244
L 349.605405 -26.123956
L 351.529293 -25.889715
L 353.453181 -26.11476
L 355.377069 -25.988463
L 357.300957 -25.755894
L 359.224845 -25.761727
L 361.148733 -25.881358
L 363.072622 -25.929484
L 364.99651 -25.925616
L 366.920398 -25.843455
L 368.844286 -25.815857
L 370.768174 -26.179155
L 372.692062 -26.091338
L 374.615951 -26.067917
L 376.539839 -25.870143
L 378.463727 -25.830593
L 380.387615 -25.95817
L 382.311503 -25.92971
L 384.235391 -25.949462
L 386.159279 -25.881736
L 388.083168 -25.989798
L 390.007056 -25.939621
L 391.930944 -25.762591
L 391.930944 -27.634424
L 391.930944 -27.634424
L 390.007056 -28.011185
L 388.083168 -27.906973
L 386.159279 -28.375406
L 384.235391 -27.981662
L 382.311503 -28.209713
L 380.387615 -28.002301
L 378.463727 -27.736808
L 376.539839 -27.598119
L 374.615951 -28.326661
L 372.692062 -28.425601
L 370.768174 -28.381567
L 368.844286 -28.05102
L 366.920398 -27.874242
L 364.99651 -27.869755
L 363.072622 -27.814648
L 361.148733 -27.87375
L 359.224845 -27.764588
L 357.300957 -28.060352
L 355.377069 -28.225417
L 353.453181 -28.232486
L 351.529293 -27.899928
L 349.605405 -28.069551
L 347.681516 -27.675248
L 345.757628 -27.743246
L 343.83374 -28.118144
L 341.909852 -27.96552
L 339.985964 -28.277932
L 338.062076 -28.47816
L 336.138187 -28.159674
L 334.214299 -27.779374
L 332.290411 -28.072987
L 330.366523 -27.991363
L 328.442635 -27.884984
L 326.518747 -28.13991
L 324.594859 -28.01957
L 322.67097 -27.691772
L 320.747082 -27.545525
L 318.823194 -27.771344
L 316.899306 -27.673482
L 314.975418 -28.101286
L 313.05153 -28.160742
L 311.127642 -28.372599
L 309.203753 -28.185373
L 307.279865 -28.035149
L 305.355977 -28.068607
L 303.432089 -28.14732
L 301.508201 -28.373511
L 299.584313 -28.359587
L 297.660424 -28.471636
L 295.736536 -28.248248
L 293.812648 -27.888776
L 291.88876 -27.842233
L 289.964872 -28.413055
L 288.040984 -28.037446
L 286.117096 -27.667195
L 284.193207 -26.424957
z
"/>
    </defs>
    <g clip-path="url(#p07cc49bbb4)">
     <use xlink:href="#m6437b02431" x="0" y="221.102362" style="fill: #d67a2c; fill-opacity: 0.2"/>
    </g>
   </g>
   <g id="matplotlib.axis_13">
    <g id="xtick_35">
     <g id="line2d_77">
      <g>
       <use xlink:href="#m0ce1e1fcdd" x="284.193207" y="196.84028" style="stroke: #000000; stroke-width: 0.7"/>
      </g>
     </g>
     <g id="text_59">
      <text style="font-size: 5.7px; font-family: 'Arial', 'Helvetica', 'DejaVu Sans', sans-serif; text-anchor: middle" x="284.193207" y="206.990036" transform="rotate(-0 284.193207 206.990036)">0</text>
     </g>
    </g>
    <g id="xtick_36">
     <g id="line2d_78">
      <g>
       <use xlink:href="#m0ce1e1fcdd" x="308.818976" y="196.84028" style="stroke: #000000; stroke-width: 0.7"/>
      </g>
     </g>
     <g id="text_60">
      <text style="font-size: 5.7px; font-family: 'Arial', 'Helvetica', 'DejaVu Sans', sans-serif; text-anchor: middle" x="308.818976" y="206.990036" transform="rotate(-0 308.818976 206.990036)">50</text>
     </g>
    </g>
    <g id="xtick_37">
     <g id="line2d_79">
      <g>
       <use xlink:href="#m0ce1e1fcdd" x="333.444744" y="196.84028" style="stroke: #000000; stroke-width: 0.7"/>
      </g>
     </g>
     <g id="text_61">
      <text style="font-size: 5.7px; font-family: 'Arial', 'Helvetica', 'DejaVu Sans', sans-serif; text-anchor: middle" x="333.444744" y="206.990036" transform="rotate(-0 333.444744 206.990036)">100</text>
     </g>
    </g>
    <g id="xtick_38">
     <g id="line2d_80">
      <g>
       <use xlink:href="#m0ce1e1fcdd" x="358.070512" y="196.84028" style="stroke: #000000; stroke-width: 0.7"/>
      </g>
     </g>
     <g id="text_62">
      <text style="font-size: 5.7px; font-family: 'Arial', 'Helvetica', 'DejaVu Sans', sans-serif; text-anchor: middle" x="358.070512" y="206.990036" transform="rotate(-0 358.070512 206.990036)">150</text>
     </g>
    </g>
    <g id="xtick_39">
     <g id="line2d_81">
      <g>
       <use xlink:href="#m0ce1e1fcdd" x="382.696281" y="196.84028" style="stroke: #000000; stroke-width: 0.7"/>
      </g>
     </g>
     <g id="text_63">
      <text style="font-size: 5.7px; font-family: 'Arial', 'Helvetica', 'DejaVu Sans', sans-serif; text-anchor: middle" x="382.696281" y="206.990036" transform="rotate(-0 382.696281 206.990036)">200</text>
     </g>
    </g>
    <g id="text_64">
     <text style="font-size: 6.3px; font-family: 'Arial', 'Helvetica', 'DejaVu Sans', sans-serif; text-anchor: middle" x="338.369898" y="216.776169" transform="rotate(-0 338.369898 216.776169)">Frequency (Hz)</text>
    </g>
   </g>
   <g id="matplotlib.axis_14">
    <g id="ytick_33">
     <g id="line2d_82">
      <g>
       <use xlink:href="#m1eed7ec5df" x="284.193207" y="196.84028" style="stroke: #000000; stroke-width: 0.7"/>
      </g>
     </g>
    </g>
    <g id="ytick_34">
     <g id="line2d_83">
      <g>
       <use xlink:href="#m1eed7ec5df" x="284.193207" y="183.325215" style="stroke: #000000; stroke-width: 0.7"/>
      </g>
     </g>
    </g>
    <g id="ytick_35">
     <g id="line2d_84">
      <g>
       <use xlink:href="#m1eed7ec5df" x="284.193207" y="169.81015" style="stroke: #000000; stroke-width: 0.7"/>
      </g>
     </g>
    </g>
    <g id="ytick_36">
     <g id="line2d_85">
      <g>
       <use xlink:href="#m1eed7ec5df" x="284.193207" y="156.295084" style="stroke: #000000; stroke-width: 0.7"/>
      </g>
     </g>
    </g>
    <g id="ytick_37">
     <g id="line2d_86">
      <g>
       <use xlink:href="#m1eed7ec5df" x="284.193207" y="142.780019" style="stroke: #000000; stroke-width: 0.7"/>
      </g>
     </g>
    </g>
    <g id="ytick_38">
     <g id="line2d_87">
      <g>
       <use xlink:href="#m1eed7ec5df" x="284.193207" y="129.264953" style="stroke: #000000; stroke-width: 0.7"/>
      </g>
     </g>
    </g>
   </g>
   <g id="line2d_88">
    <path d="M 284.193207 195.600019
L 286.117096 194.563583
L 288.040984 194.433503
L 289.964872 193.9977
L 291.88876 194.353604
L 293.812648 194.058419
L 295.736536 193.914236
L 297.660424 193.797158
L 299.584313 194.002851
L 301.508201 194.116932
L 303.432089 194.293055
L 305.355977 194.294509
L 307.279865 194.12663
L 309.203753 194.16444
L 311.127642 194.19467
L 313.05153 194.257196
L 314.975418 194.094102
L 316.899306 194.295619
L 318.823194 194.214528
L 320.747082 194.459016
L 322.67097 194.390293
L 324.594859 193.951864
L 326.518747 194.156717
L 328.442635 194.242125
L 330.366523 194.141855
L 332.290411 194.04851
L 334.214299 194.430785
L 336.138187 193.981236
L 338.062076 193.982395
L 339.985964 194.12911
L 341.909852 194.126423
L 343.83374 194.057356
L 345.757628 194.505923
L 347.681516 194.373545
L 349.605405 194.115134
L 351.529293 194.41
L 353.453181 193.961942
L 355.377069 194.220578
L 357.300957 194.417182
L 359.224845 194.479478
L 361.148733 194.327954
L 363.072622 194.498415
L 364.99651 194.00521
L 366.920398 194.419164
L 368.844286 194.044777
L 370.768174 194.227028
L 372.692062 194.174958
L 374.615951 194.272663
L 376.539839 194.357858
L 378.463727 194.462644
L 380.387615 194.315596
L 382.311503 194.215678
L 384.235391 194.250384
L 386.159279 193.956507
L 388.083168 194.180024
L 390.007056 194.020305
L 391.930944 194.455716
" clip-path="url(#p07cc49bbb4)" style="fill: none; stroke: #d67a2c; stroke-width: 0.9; stroke-linecap: square"/>
   </g>
   <g id="patch_21">
    <path d="M 284.193207 196.84028
L 284.193207 119.099517
" style="fill: none; stroke: #000000; stroke-width: 0.8; stroke-linejoin: miter; stroke-linecap: square"/>
   </g>
   <g id="patch_22">
    <path d="M 284.193207 196.84028
L 392.546588 196.84028
" style="fill: none; stroke: #000000; stroke-width: 0.8; stroke-linejoin: miter; stroke-linecap: square"/>
   </g>
  </g>
  <g id="axes_8">
   <g id="patch_23">
    <path d="M 404.216802 196.84028
L 512.570183 196.84028
L 512.570183 119.099517
L 404.216802 119.099517
z
" style="fill: #ffffff"/>
   </g>
   <g id="FillBetweenPolyCollection_4">
    <defs>
     <path id="m5da2b2ac75" d="M 404.216802 -30.712821
L 404.216802 -24.841405
L 406.140691 -26.128737
L 408.064579 -26.084975
L 409.988467 -26.334231
L 411.912355 -26.342681
L 413.836243 -26.543795
L 415.760131 -26.569737
L 417.68402 -26.67357
L 419.607908 -26.236895
L 421.531796 -26.26337
L 423.455684 -26.331089
L 425.379572 -26.420703
L 427.30346 -26.242534
L 429.227348 -26.112149
L 431.151237 -26.279961
L 433.075125 -26.487079
L 434.999013 -26.699482
L 436.922901 -26.93684
L 438.846789 -26.679492
L 440.770677 -26.583183
L 442.694565 -26.351833
L 444.618454 -26.52987
L 446.542342 -26.545023
L 448.46623 -26.297273
L 450.390118 -26.065191
L 452.314006 -26.208658
L 454.237894 -26.159908
L 456.161783 -26.367685
L 458.085671 -26.378091
L 460.009559 -26.158571
L 461.933447 -26.436663
L 463.857335 -26.439009
L 465.781223 -26.180902
L 467.705111 -26.093942
L 469.629 -25.989897
L 471.552888 -26.393261
L 473.476776 -26.14802
L 475.400664 -26.261406
L 477.324552 -26.030591
L 479.24844 -26.384473
L 481.172328 -26.56855
L 483.096217 -26.22122
L 485.020105 -26.414469
L 486.943993 -26.354521
L 488.867881 -26.030934
L 490.791769 -26.15365
L 492.715657 -25.993411
L 494.639546 -26.109359
L 496.563434 -26.422222
L 498.487322 -26.231227
L 500.41121 -26.147204
L 502.335098 -25.895598
L 504.258986 -26.143719
L 506.182874 -26.267162
L 508.106763 -26.318879
L 510.030651 -26.023611
L 511.954539 -26.167655
L 511.954539 -36.93055
L 511.954539 -36.93055
L 510.030651 -35.881431
L 508.106763 -36.473879
L 506.182874 -36.76685
L 504.258986 -37.993223
L 502.335098 -37.126349
L 500.41121 -35.65361
L 498.487322 -36.729806
L 496.563434 -37.138348
L 494.639546 -36.420202
L 492.715657 -35.62296
L 490.791769 -36.295304
L 488.867881 -35.998598
L 486.943993 -36.580504
L 485.020105 -37.933347
L 483.096217 -39.4308
L 481.172328 -36.736805
L 479.24844 -35.348038
L 477.324552 -36.239419
L 475.400664 -36.308339
L 473.476776 -37.19238
L 471.552888 -36.162757
L 469.629 -36.454943
L 467.705111 -39.068332
L 465.781223 -35.726892
L 463.857335 -39.29611
L 461.933447 -38.168944
L 460.009559 -37.030549
L 458.085671 -40.404271
L 456.161783 -38.841478
L 454.237894 -38.789687
L 452.314006 -37.024929
L 450.390118 -39.894139
L 448.46623 -38.084369
L 446.542342 -37.238092
L 444.618454 -39.761936
L 442.694565 -38.134021
L 440.770677 -37.855736
L 438.846789 -39.888383
L 436.922901 -38.243381
L 434.999013 -36.350875
L 433.075125 -38.289973
L 431.151237 -36.192542
L 429.227348 -39.133877
L 427.30346 -37.034773
L 425.379572 -38.186537
L 423.455684 -36.902947
L 421.531796 -37.23594
L 419.607908 -39.323499
L 417.68402 -38.973409
L 415.760131 -37.839453
L 413.836243 -38.052344
L 411.912355 -39.514109
L 409.988467 -40.618844
L 408.064579 -40.181708
L 406.140691 -37.372062
L 404.216802 -30.712821
z
"/>
    </defs>
    <g clip-path="url(#p5c903a7401)">
     <use xlink:href="#m5da2b2ac75" x="0" y="221.102362" style="fill: #777777; fill-opacity: 0.2"/>
    </g>
   </g>
   <g id="matplotlib.axis_15">
    <g id="xtick_40">
     <g id="line2d_89">
      <g>
       <use xlink:href="#m0ce1e1fcdd" x="404.216802" y="196.84028" style="stroke: #000000; stroke-width: 0.7"/>
      </g>
     </g>
     <g id="text_65">
      <text style="font-size: 5.7px; font-family: 'Arial', 'Helvetica', 'DejaVu Sans', sans-serif; text-anchor: middle" x="404.216802" y="206.990036" transform="rotate(-0 404.216802 206.990036)">0</text>
     </g>
    </g>
    <g id="xtick_41">
     <g id="line2d_90">
      <g>
       <use xlink:href="#m0ce1e1fcdd" x="428.842571" y="196.84028" style="stroke: #000000; stroke-width: 0.7"/>
      </g>
     </g>
     <g id="text_66">
      <text style="font-size: 5.7px; font-family: 'Arial', 'Helvetica', 'DejaVu Sans', sans-serif; text-anchor: middle" x="428.842571" y="206.990036" transform="rotate(-0 428.842571 206.990036)">50</text>
     </g>
    </g>
    <g id="xtick_42">
     <g id="line2d_91">
      <g>
       <use xlink:href="#m0ce1e1fcdd" x="453.468339" y="196.84028" style="stroke: #000000; stroke-width: 0.7"/>
      </g>
     </g>
     <g id="text_67">
      <text style="font-size: 5.7px; font-family: 'Arial', 'Helvetica', 'DejaVu Sans', sans-serif; text-anchor: middle" x="453.468339" y="206.990036" transform="rotate(-0 453.468339 206.990036)">100</text>
     </g>
    </g>
    <g id="xtick_43">
     <g id="line2d_92">
      <g>
       <use xlink:href="#m0ce1e1fcdd" x="478.094107" y="196.84028" style="stroke: #000000; stroke-width: 0.7"/>
      </g>
     </g>
     <g id="text_68">
      <text style="font-size: 5.7px; font-family: 'Arial', 'Helvetica', 'DejaVu Sans', sans-serif; text-anchor: middle" x="478.094107" y="206.990036" transform="rotate(-0 478.094107 206.990036)">150</text>
     </g>
    </g>
    <g id="xtick_44">
     <g id="line2d_93">
      <g>
       <use xlink:href="#m0ce1e1fcdd" x="502.719876" y="196.84028" style="stroke: #000000; stroke-width: 0.7"/>
      </g>
     </g>
     <g id="text_69">
      <text style="font-size: 5.7px; font-family: 'Arial', 'Helvetica', 'DejaVu Sans', sans-serif; text-anchor: middle" x="502.719876" y="206.990036" transform="rotate(-0 502.719876 206.990036)">200</text>
     </g>
    </g>
    <g id="text_70">
     <text style="font-size: 6.3px; font-family: 'Arial', 'Helvetica', 'DejaVu Sans', sans-serif; text-anchor: middle" x="458.393493" y="216.776169" transform="rotate(-0 458.393493 216.776169)">Frequency (Hz)</text>
    </g>
   </g>
   <g id="matplotlib.axis_16">
    <g id="ytick_39">
     <g id="line2d_94">
      <g>
       <use xlink:href="#m1eed7ec5df" x="404.216802" y="196.84028" style="stroke: #000000; stroke-width: 0.7"/>
      </g>
     </g>
    </g>
    <g id="ytick_40">
     <g id="line2d_95">
      <g>
       <use xlink:href="#m1eed7ec5df" x="404.216802" y="183.325215" style="stroke: #000000; stroke-width: 0.7"/>
      </g>
     </g>
    </g>
    <g id="ytick_41">
     <g id="line2d_96">
      <g>
       <use xlink:href="#m1eed7ec5df" x="404.216802" y="169.81015" style="stroke: #000000; stroke-width: 0.7"/>
      </g>
     </g>
    </g>
    <g id="ytick_42">
     <g id="line2d_97">
      <g>
       <use xlink:href="#m1eed7ec5df" x="404.216802" y="156.295084" style="stroke: #000000; stroke-width: 0.7"/>
      </g>
     </g>
    </g>
    <g id="ytick_43">
     <g id="line2d_98">
      <g>
       <use xlink:href="#m1eed7ec5df" x="404.216802" y="142.780019" style="stroke: #000000; stroke-width: 0.7"/>
      </g>
     </g>
    </g>
    <g id="ytick_44">
     <g id="line2d_99">
      <g>
       <use xlink:href="#m1eed7ec5df" x="404.216802" y="129.264953" style="stroke: #000000; stroke-width: 0.7"/>
      </g>
     </g>
    </g>
   </g>
   <g id="line2d_100">
    <path d="M 404.216802 194.9422
L 406.140691 191.244802
L 408.064579 190.70369
L 409.988467 191.22884
L 411.912355 191.271433
L 413.836243 190.91861
L 415.760131 191.178947
L 417.68402 191.084087
L 419.607908 190.518507
L 421.531796 191.835834
L 423.455684 191.574178
L 425.379572 191.522428
L 427.30346 191.095161
L 429.227348 192.019498
L 431.151237 190.937574
L 433.075125 191.409754
L 434.999013 191.864044
L 436.922901 191.681127
L 438.846789 191.434198
L 440.770677 190.780108
L 442.694565 191.393861
L 444.618454 190.716896
L 446.542342 191.437938
L 448.46623 191.709921
L 450.390118 191.037937
L 452.314006 192.197554
L 454.237894 191.977138
L 456.161783 191.873014
L 458.085671 191.448572
L 460.009559 191.769575
L 461.933447 191.138251
L 463.857335 192.506427
L 465.781223 192.170088
L 467.705111 191.039062
L 469.629 190.747683
L 471.552888 191.220827
L 473.476776 191.668211
L 475.400664 191.434887
L 477.324552 191.993176
L 479.24844 191.190667
L 481.172328 191.541784
L 483.096217 191.623984
L 485.020105 192.034937
L 486.943993 191.79742
L 488.867881 192.250258
L 490.791769 192.046128
L 492.715657 192.375509
L 494.639546 192.843894
L 496.563434 192.12978
L 498.487322 192.18139
L 500.41121 191.298605
L 502.335098 191.585539
L 504.258986 191.52774
L 506.182874 191.96819
L 508.106763 192.1825
L 510.030651 192.529046
L 511.954539 192.201111
" clip-path="url(#p5c903a7401)" style="fill: none; stroke: #777777; stroke-width: 0.9; stroke-linecap: square"/>
   </g>
   <g id="patch_24">
    <path d="M 404.216802 196.84028
L 404.216802 119.099517
" style="fill: none; stroke: #000000; stroke-width: 0.8; stroke-linejoin: miter; stroke-linecap: square"/>
   </g>
   <g id="patch_25">
    <path d="M 404.216802 196.84028
L 512.570183 196.84028
" style="fill: none; stroke: #000000; stroke-width: 0.8; stroke-linejoin: miter; stroke-linecap: square"/>
   </g>
  </g>
 </g>
 <defs>
  <clipPath id="pd64bbe917b">
   <rect x="44.146017" y="14.096431" width="108.353381" height="77.740764"/>
  </clipPath>
  <clipPath id="p7a1a05356b">
   <rect x="164.169612" y="14.096431" width="108.353381" height="77.740764"/>
  </clipPath>
  <clipPath id="p6ac8621947">
   <rect x="284.193207" y="14.096431" width="108.353381" height="77.740764"/>
  </clipPath>
  <clipPath id="pd801b41bf5">
   <rect x="404.216802" y="14.096431" width="108.353381" height="77.740764"/>
  </clipPath>
  <clipPath id="p829a0c830e">
   <rect x="44.146017" y="119.099517" width="108.353381" height="77.740764"/>
  </clipPath>
  <clipPath id="pd46239c82a">
   <rect x="164.169612" y="119.099517" width="108.353381" height="77.740764"/>
  </clipPath>
  <clipPath id="p07cc49bbb4">
   <rect x="284.193207" y="119.099517" width="108.353381" height="77.740764"/>
  </clipPath>
  <clipPath id="p5c903a7401">
   <rect x="404.216802" y="119.099517" width="108.353381" height="77.740764"/>
  </clipPath>
 </defs>
</svg>
